<svg width="116" height="44" viewBox="0 0 116 44" fill="none" xmlns="http://www.w3.org/2000/svg">
<rect y="0.586792" width="115.499" height="42.7498" rx="5.25" fill="black"/>
<g clip-path="url(#clip0_2038_1671)">
<path d="M15.3871 31.3184C12.7081 31.303 10.4922 25.8344 10.4922 23.0494C10.4922 18.5 13.905 17.5041 15.2202 17.5041C15.813 17.5041 16.4458 17.7368 17.0041 17.9428C17.3945 18.0865 17.7982 18.2348 18.0228 18.2348C18.1572 18.2348 18.4739 18.1086 18.7535 17.9979C19.3498 17.7605 20.0919 17.4655 20.9561 17.4655C20.9576 17.4655 20.9597 17.4655 20.9612 17.4655C21.6065 17.4655 23.5629 17.6071 24.7391 19.3734L25.0146 19.7875L24.6181 20.0867C24.0516 20.5141 23.018 21.2938 23.018 22.8382C23.018 24.6674 24.1886 25.3709 24.7509 25.7093C24.9992 25.8586 25.2561 26.0126 25.2561 26.3494C25.2561 26.5693 23.5011 31.2911 20.9524 31.2911C20.3288 31.2911 19.888 31.1037 19.4992 30.9384C19.1058 30.771 18.7663 30.6268 18.2055 30.6268C17.9212 30.6268 17.5618 30.7612 17.1812 30.9039C16.6611 31.098 16.0725 31.3184 15.4046 31.3184H15.3871Z" fill="white"/>
<path d="M21.2254 13.317C21.2917 15.7103 19.5802 17.3706 17.8706 17.2665C17.5889 15.3566 19.5799 13.317 21.2254 13.317Z" fill="white"/>
</g>
<path opacity="0.8" d="M37.1875 18.1649H35.1676V11.6195H37.277C37.9119 11.6195 38.4553 11.7505 38.907 12.0126C39.3587 12.2725 39.7049 12.6465 39.9457 13.1344C40.1864 13.6202 40.3068 14.2018 40.3068 14.8794C40.3068 15.5612 40.1854 16.1482 39.9425 16.6404C39.6996 17.1305 39.3459 17.5076 38.8814 17.7718C38.4169 18.0339 37.8523 18.1649 37.1875 18.1649ZM35.9602 17.4618H37.1364C37.6776 17.4618 38.1261 17.3574 38.4819 17.1486C38.8377 16.9398 39.103 16.6425 39.2777 16.2569C39.4524 15.8712 39.5398 15.4121 39.5398 14.8794C39.5398 14.351 39.4535 13.8961 39.2809 13.5147C39.1083 13.1312 38.8505 12.8371 38.5075 12.6326C38.1644 12.4259 37.7372 12.3226 37.2259 12.3226H35.9602V17.4618ZM43.5284 18.2672C43.0852 18.2672 42.6964 18.1617 42.3619 17.9508C42.0295 17.7398 41.7695 17.4447 41.582 17.0655C41.3967 16.6862 41.304 16.243 41.304 15.7359C41.304 15.2246 41.3967 14.7782 41.582 14.3968C41.7695 14.0154 42.0295 13.7192 42.3619 13.5083C42.6964 13.2974 43.0852 13.1919 43.5284 13.1919C43.9716 13.1919 44.3594 13.2974 44.6918 13.5083C45.0263 13.7192 45.2862 14.0154 45.4716 14.3968C45.6591 14.7782 45.7528 15.2246 45.7528 15.7359C45.7528 16.243 45.6591 16.6862 45.4716 17.0655C45.2862 17.4447 45.0263 17.7398 44.6918 17.9508C44.3594 18.1617 43.9716 18.2672 43.5284 18.2672ZM43.5284 17.5896C43.8651 17.5896 44.142 17.5033 44.3594 17.3308C44.5767 17.1582 44.7376 16.9313 44.842 16.65C44.9464 16.3688 44.9986 16.0641 44.9986 15.7359C44.9986 15.4078 44.9464 15.1021 44.842 14.8187C44.7376 14.5353 44.5767 14.3063 44.3594 14.1315C44.142 13.9568 43.8651 13.8695 43.5284 13.8695C43.1918 13.8695 42.9148 13.9568 42.6974 14.1315C42.4801 14.3063 42.3192 14.5353 42.2148 14.8187C42.1104 15.1021 42.0582 15.4078 42.0582 15.7359C42.0582 16.0641 42.1104 16.3688 42.2148 16.65C42.3192 16.9313 42.4801 17.1582 42.6974 17.3308C42.9148 17.5033 43.1918 17.5896 43.5284 17.5896ZM47.8494 18.1649L46.3537 13.2558H47.1463L48.2074 17.0143H48.2585L49.3068 13.2558H50.1122L51.1477 17.0016H51.1989L52.2599 13.2558H53.0526L51.5568 18.1649H50.8153L49.7415 14.3936H49.6648L48.5909 18.1649H47.8494ZM54.804 15.2118V18.1649H54.0497V13.2558H54.7784V14.0229H54.8423C54.9574 13.7736 55.1321 13.5733 55.3665 13.422C55.6009 13.2686 55.9034 13.1919 56.2742 13.1919C56.6065 13.1919 56.8974 13.2601 57.1467 13.3965C57.396 13.5307 57.5898 13.7352 57.7283 14.0101C57.8668 14.2828 57.9361 14.628 57.9361 15.0456V18.1649H57.1818V15.0967C57.1818 14.7111 57.0817 14.4107 56.8814 14.1955C56.6811 13.9781 56.4063 13.8695 56.0568 13.8695C55.8161 13.8695 55.6009 13.9217 55.4112 14.0261C55.2237 14.1305 55.0756 14.2828 54.967 14.4831C54.8583 14.6834 54.804 14.9263 54.804 15.2118ZM60.0686 11.6195V18.1649H59.3144V11.6195H60.0686ZM63.4444 18.2672C63.0012 18.2672 62.6124 18.1617 62.2779 17.9508C61.9455 17.7398 61.6855 17.4447 61.498 17.0655C61.3127 16.6862 61.22 16.243 61.22 15.7359C61.22 15.2246 61.3127 14.7782 61.498 14.3968C61.6855 14.0154 61.9455 13.7192 62.2779 13.5083C62.6124 13.2974 63.0012 13.1919 63.4444 13.1919C63.8876 13.1919 64.2754 13.2974 64.6078 13.5083C64.9423 13.7192 65.2022 14.0154 65.3876 14.3968C65.5751 14.7782 65.6689 15.2246 65.6689 15.7359C65.6689 16.243 65.5751 16.6862 65.3876 17.0655C65.2022 17.4447 64.9423 17.7398 64.6078 17.9508C64.2754 18.1617 63.8876 18.2672 63.4444 18.2672ZM63.4444 17.5896C63.7811 17.5896 64.0581 17.5033 64.2754 17.3308C64.4927 17.1582 64.6536 16.9313 64.758 16.65C64.8624 16.3688 64.9146 16.0641 64.9146 15.7359C64.9146 15.4078 64.8624 15.1021 64.758 14.8187C64.6536 14.5353 64.4927 14.3063 64.2754 14.1315C64.0581 13.9568 63.7811 13.8695 63.4444 13.8695C63.1078 13.8695 62.8308 13.9568 62.6135 14.1315C62.3961 14.3063 62.2353 14.5353 62.1309 14.8187C62.0265 15.1021 61.9743 15.4078 61.9743 15.7359C61.9743 16.0641 62.0265 16.3688 62.1309 16.65C62.2353 16.9313 62.3961 17.1582 62.6135 17.3308C62.8308 17.5033 63.1078 17.5896 63.4444 17.5896ZM68.2648 18.28C67.9538 18.28 67.6714 18.2214 67.4179 18.1042C67.1643 17.9849 66.963 17.8134 66.8138 17.5896C66.6647 17.3638 66.5901 17.0911 66.5901 16.7715C66.5901 16.4902 66.6455 16.2622 66.7563 16.0875C66.8671 15.9107 67.0152 15.7722 67.2006 15.672C67.3859 15.5719 67.5905 15.4973 67.8142 15.4483C68.04 15.3972 68.267 15.3567 68.4949 15.3268C68.7932 15.2885 69.0351 15.2597 69.2204 15.2406C69.4079 15.2192 69.5443 15.1841 69.6295 15.1351C69.7169 15.0861 69.7606 15.0009 69.7606 14.8794V14.8538C69.7606 14.5385 69.6743 14.2935 69.5017 14.1188C69.3312 13.944 69.0724 13.8567 68.7251 13.8567C68.365 13.8567 68.0827 13.9355 67.8781 14.0932C67.6736 14.2509 67.5297 14.4192 67.4466 14.5982L66.7307 14.3425C66.8586 14.0442 67.029 13.8119 67.2421 13.6457C67.4573 13.4774 67.6917 13.3602 67.9452 13.2942C68.2009 13.226 68.4523 13.1919 68.6995 13.1919C68.8572 13.1919 69.0383 13.2111 69.2428 13.2494C69.4495 13.2857 69.6487 13.3613 69.8405 13.4764C70.0344 13.5914 70.1952 13.7651 70.3231 13.9973C70.4509 14.2295 70.5148 14.5406 70.5148 14.9305V18.1649H69.7606V17.5001H69.7222C69.6711 17.6067 69.5859 17.7207 69.4665 17.8421C69.3472 17.9636 69.1885 18.0669 68.9903 18.1521C68.7922 18.2374 68.5503 18.28 68.2648 18.28ZM68.3799 17.6024C68.6782 17.6024 68.9296 17.5438 69.1341 17.4266C69.3408 17.3094 69.4964 17.1582 69.6008 16.9728C69.7073 16.7874 69.7606 16.5925 69.7606 16.3879V15.6976C69.7286 15.7359 69.6583 15.7711 69.5496 15.8031C69.4431 15.8329 69.3195 15.8595 69.1789 15.883C69.0404 15.9043 68.9051 15.9234 68.773 15.9405C68.643 15.9554 68.5376 15.9682 68.4566 15.9788C68.2606 16.0044 68.0773 16.046 67.9069 16.1035C67.7386 16.1589 67.6022 16.243 67.4978 16.356C67.3955 16.4668 67.3444 16.618 67.3444 16.8098C67.3444 17.0719 67.4413 17.27 67.6352 17.4043C67.8312 17.5364 68.0795 17.6024 68.3799 17.6024ZM73.7452 18.2672C73.3361 18.2672 72.975 18.1639 72.6618 17.9572C72.3485 17.7484 72.1035 17.4543 71.9267 17.0751C71.7498 16.6937 71.6614 16.243 71.6614 15.7232C71.6614 15.2075 71.7498 14.7601 71.9267 14.3808C72.1035 14.0016 72.3496 13.7086 72.665 13.5019C72.9803 13.2952 73.3446 13.1919 73.758 13.1919C74.0776 13.1919 74.3301 13.2452 74.5155 13.3517C74.703 13.4561 74.8457 13.5754 74.9437 13.7097C75.0439 13.8418 75.1216 13.9504 75.177 14.0357H75.2409V11.6195H75.9952V18.1649H75.2665V17.4107H75.177C75.1216 17.5001 75.0428 17.6131 74.9405 17.7494C74.8382 17.8837 74.6923 18.0041 74.5027 18.1106C74.313 18.215 74.0606 18.2672 73.7452 18.2672ZM73.8475 17.5896C74.15 17.5896 74.4057 17.5108 74.6145 17.3531C74.8233 17.1933 74.9821 16.9728 75.0907 16.6916C75.1994 16.4082 75.2537 16.0811 75.2537 15.7104C75.2537 15.3439 75.2005 15.0232 75.0939 14.7484C74.9874 14.4714 74.8297 14.2562 74.6209 14.1028C74.4121 13.9472 74.1543 13.8695 73.8475 13.8695C73.5279 13.8695 73.2615 13.9515 73.0485 14.1156C72.8375 14.2775 72.6788 14.498 72.5723 14.7771C72.4679 15.0541 72.4157 15.3652 72.4157 15.7104C72.4157 16.0598 72.4689 16.3773 72.5755 16.6628C72.6841 16.9462 72.8439 17.172 73.0549 17.3403C73.2679 17.5065 73.5321 17.5896 73.8475 17.5896ZM82.0069 18.2672C81.5637 18.2672 81.1749 18.1617 80.8404 17.9508C80.508 17.7398 80.2481 17.4447 80.0606 17.0655C79.8752 16.6862 79.7825 16.243 79.7825 15.7359C79.7825 15.2246 79.8752 14.7782 80.0606 14.3968C80.2481 14.0154 80.508 13.7192 80.8404 13.5083C81.1749 13.2974 81.5637 13.1919 82.0069 13.1919C82.4501 13.1919 82.8379 13.2974 83.1703 13.5083C83.5048 13.7192 83.7647 14.0154 83.9501 14.3968C84.1376 14.7782 84.2314 15.2246 84.2314 15.7359C84.2314 16.243 84.1376 16.6862 83.9501 17.0655C83.7647 17.4447 83.5048 17.7398 83.1703 17.9508C82.8379 18.1617 82.4501 18.2672 82.0069 18.2672ZM82.0069 17.5896C82.3436 17.5896 82.6206 17.5033 82.8379 17.3308C83.0552 17.1582 83.2161 16.9313 83.3205 16.65C83.4249 16.3688 83.4771 16.0641 83.4771 15.7359C83.4771 15.4078 83.4249 15.1021 83.3205 14.8187C83.2161 14.5353 83.0552 14.3063 82.8379 14.1315C82.6206 13.9568 82.3436 13.8695 82.0069 13.8695C81.6703 13.8695 81.3933 13.9568 81.176 14.1315C80.9586 14.3063 80.7978 14.5353 80.6934 14.8187C80.589 15.1021 80.5368 15.4078 80.5368 15.7359C80.5368 16.0641 80.589 16.3688 80.6934 16.65C80.7978 16.9313 80.9586 17.1582 81.176 17.3308C81.3933 17.5033 81.6703 17.5896 82.0069 17.5896ZM86.137 15.2118V18.1649H85.3827V13.2558H86.1114V14.0229H86.1753C86.2904 13.7736 86.4651 13.5733 86.6995 13.422C86.9339 13.2686 87.2364 13.1919 87.6072 13.1919C87.9395 13.1919 88.2304 13.2601 88.4797 13.3965C88.729 13.5307 88.9229 13.7352 89.0614 14.0101C89.1998 14.2828 89.2691 14.628 89.2691 15.0456V18.1649H88.5148V15.0967C88.5148 14.7111 88.4147 14.4107 88.2144 14.1955C88.0141 13.9781 87.7393 13.8695 87.3898 13.8695C87.1491 13.8695 86.9339 13.9217 86.7442 14.0261C86.5567 14.1305 86.4087 14.2828 86.3 14.4831C86.1913 14.6834 86.137 14.9263 86.137 15.2118ZM95.3136 13.2558V13.895H92.7695V13.2558H95.3136ZM93.511 12.0797H94.2653V16.7587C94.2653 16.9717 94.2962 17.1315 94.358 17.2381C94.4219 17.3425 94.5028 17.4128 94.6009 17.449C94.701 17.4831 94.8065 17.5001 94.9173 17.5001C95.0004 17.5001 95.0685 17.4959 95.1218 17.4874C95.1751 17.4767 95.2177 17.4682 95.2496 17.4618L95.4031 18.1393C95.3519 18.1585 95.2805 18.1777 95.1889 18.1969C95.0973 18.2182 94.9812 18.2288 94.8406 18.2288C94.6275 18.2288 94.4187 18.183 94.2141 18.0914C94.0117 17.9998 93.8434 17.8602 93.7092 17.6727C93.5771 17.4852 93.511 17.2487 93.511 16.9632V12.0797ZM97.3079 15.2118V18.1649H96.5536V11.6195H97.3079V14.0229H97.3718C97.4869 13.7693 97.6595 13.568 97.8896 13.4188C98.1218 13.2675 98.4308 13.1919 98.8164 13.1919C99.1509 13.1919 99.4439 13.259 99.6953 13.3933C99.9467 13.5254 100.142 13.7288 100.28 14.0037C100.421 14.2764 100.491 14.6237 100.491 15.0456V18.1649H99.7369V15.0967C99.7369 14.7068 99.6357 14.4053 99.4332 14.1923C99.233 13.9771 98.9549 13.8695 98.5991 13.8695C98.3519 13.8695 98.1303 13.9217 97.9343 14.0261C97.7404 14.1305 97.587 14.2828 97.4741 14.4831C97.3633 14.6834 97.3079 14.9263 97.3079 15.2118ZM103.929 18.2672C103.456 18.2672 103.048 18.1628 102.705 17.954C102.364 17.743 102.101 17.449 101.916 17.0719C101.733 16.6926 101.641 16.2516 101.641 15.7487C101.641 15.2459 101.733 14.8027 101.916 14.4192C102.101 14.0335 102.359 13.7331 102.689 13.5179C103.022 13.3006 103.409 13.1919 103.853 13.1919C104.108 13.1919 104.361 13.2345 104.61 13.3197C104.859 13.405 105.086 13.5435 105.291 13.7352C105.495 13.9249 105.658 14.1763 105.78 14.4895C105.901 14.8027 105.962 15.1884 105.962 15.6465V15.9661H102.178V15.3141H105.195C105.195 15.0371 105.139 14.7899 105.029 14.5726C104.92 14.3553 104.764 14.1837 104.562 14.058C104.362 13.9323 104.125 13.8695 103.853 13.8695C103.552 13.8695 103.292 13.944 103.073 14.0932C102.855 14.2402 102.688 14.432 102.571 14.6685C102.454 14.905 102.395 15.1585 102.395 15.4291V15.8638C102.395 16.2345 102.459 16.5488 102.587 16.8066C102.717 17.0623 102.897 17.2572 103.127 17.3915C103.357 17.5236 103.625 17.5896 103.929 17.5896C104.127 17.5896 104.306 17.5619 104.466 17.5065C104.628 17.449 104.768 17.3638 104.885 17.2509C105.002 17.1358 105.093 16.993 105.157 16.8226L105.885 17.0271C105.809 17.2743 105.68 17.4916 105.498 17.6791C105.317 17.8645 105.094 18.0094 104.827 18.1138C104.561 18.2161 104.262 18.2672 103.929 18.2672Z" fill="white"/>
<path d="M35.965 32.469H34.6547L37.599 24.2872H39.0252L41.9696 32.469H40.6592L38.3461 25.7733H38.2821L35.965 32.469ZM36.1847 29.265H40.4355V30.3037H36.1847V29.265ZM43.0552 34.7701V26.3326H44.2217V27.3274H44.3216C44.3909 27.1996 44.4907 27.0517 44.6213 26.8839C44.7518 26.7162 44.9329 26.5697 45.1646 26.4445C45.3963 26.3166 45.7026 26.2527 46.0834 26.2527C46.5788 26.2527 47.0209 26.3779 47.4098 26.6283C47.7986 26.8786 48.1036 27.2395 48.3246 27.7109C48.5484 28.1823 48.6602 28.7496 48.6602 29.4128C48.6602 30.076 48.5497 30.6446 48.3286 31.1187C48.1076 31.5901 47.804 31.9536 47.4178 32.2093C47.0316 32.4623 46.5908 32.5888 46.0954 32.5888C45.7225 32.5888 45.4176 32.5263 45.1806 32.4011C44.9462 32.2759 44.7624 32.1294 44.6292 31.9616C44.4961 31.7938 44.3935 31.6447 44.3216 31.5142H44.2497V34.7701H43.0552ZM44.2257 29.4008C44.2257 29.8323 44.2883 30.2105 44.4135 30.5354C44.5387 30.8603 44.7198 31.1147 44.9568 31.2985C45.1939 31.4796 45.4842 31.5701 45.8277 31.5701C46.1846 31.5701 46.4829 31.4756 46.7226 31.2865C46.9623 31.0947 47.1434 30.835 47.266 30.5074C47.3911 30.1798 47.4537 29.811 47.4537 29.4008C47.4537 28.996 47.3925 28.6324 47.27 28.3102C47.1501 27.9879 46.969 27.7336 46.7266 27.5471C46.4869 27.3607 46.1873 27.2675 45.8277 27.2675C45.4815 27.2675 45.1885 27.3567 44.9488 27.5351C44.7118 27.7136 44.532 27.9626 44.4095 28.2822C44.287 28.6018 44.2257 28.9747 44.2257 29.4008ZM49.9986 34.7701V26.3326H51.1651V27.3274H51.265C51.3342 27.1996 51.4341 27.0517 51.5646 26.8839C51.6951 26.7162 51.8762 26.5697 52.1079 26.4445C52.3396 26.3166 52.6459 26.2527 53.0268 26.2527C53.5222 26.2527 53.9643 26.3779 54.3531 26.6283C54.742 26.8786 55.0469 27.2395 55.268 27.7109C55.4917 28.1823 55.6036 28.7496 55.6036 29.4128C55.6036 30.076 55.4931 30.6446 55.272 31.1187C55.0509 31.5901 54.7473 31.9536 54.3611 32.2093C53.9749 32.4623 53.5342 32.5888 53.0388 32.5888C52.6659 32.5888 52.361 32.5263 52.1239 32.4011C51.8895 32.2759 51.7058 32.1294 51.5726 31.9616C51.4394 31.7938 51.3369 31.6447 51.265 31.5142H51.1931V34.7701H49.9986ZM51.1691 29.4008C51.1691 29.8323 51.2317 30.2105 51.3569 30.5354C51.482 30.8603 51.6632 31.1147 51.9002 31.2985C52.1372 31.4796 52.4275 31.5701 52.7711 31.5701C53.128 31.5701 53.4263 31.4756 53.666 31.2865C53.9057 31.0947 54.0868 30.835 54.2093 30.5074C54.3345 30.1798 54.3971 29.811 54.3971 29.4008C54.3971 28.996 54.3358 28.6324 54.2133 28.3102C54.0935 27.9879 53.9124 27.7336 53.67 27.5471C53.4303 27.3607 53.1307 27.2675 52.7711 27.2675C52.4249 27.2675 52.1319 27.3567 51.8922 27.5351C51.6552 27.7136 51.4754 27.9626 51.3529 28.2822C51.2304 28.6018 51.1691 28.9747 51.1691 29.4008ZM64.4775 26.4365C64.4349 26.0583 64.2591 25.7653 63.9502 25.5576C63.6413 25.3472 63.2524 25.242 62.7837 25.242C62.4481 25.242 62.1578 25.2953 61.9127 25.4018C61.6677 25.5057 61.4773 25.6495 61.3414 25.8333C61.2083 26.0144 61.1417 26.2208 61.1417 26.4525C61.1417 26.6469 61.187 26.8147 61.2775 26.9559C61.3707 27.097 61.4919 27.2155 61.6411 27.3114C61.7929 27.4046 61.9553 27.4832 62.1285 27.5471C62.3016 27.6084 62.468 27.659 62.6278 27.6989L63.4269 27.9067C63.6879 27.9706 63.9555 28.0572 64.2299 28.1663C64.5042 28.2755 64.7585 28.4194 64.9929 28.5978C65.2273 28.7763 65.4164 28.9973 65.5602 29.261C65.7067 29.5247 65.7799 29.8403 65.7799 30.2078C65.7799 30.6712 65.6601 31.0827 65.4204 31.4423C65.1833 31.8018 64.8384 32.0855 64.3857 32.2932C63.9356 32.501 63.3909 32.6048 62.7517 32.6048C62.1391 32.6048 61.6091 32.5076 61.1617 32.3132C60.7142 32.1188 60.364 31.8431 60.111 31.4862C59.858 31.1267 59.7181 30.7005 59.6915 30.2078H60.93C60.9539 30.5034 61.0498 30.7498 61.2176 30.9469C61.3881 31.1413 61.6051 31.2865 61.8688 31.3823C62.1351 31.4756 62.4268 31.5222 62.7437 31.5222C63.0926 31.5222 63.4029 31.4676 63.6745 31.3584C63.9489 31.2465 64.1646 31.092 64.3217 30.895C64.4789 30.6952 64.5574 30.4622 64.5574 30.1958C64.5574 29.9535 64.4882 29.755 64.3497 29.6006C64.2139 29.4461 64.0288 29.3182 63.7944 29.217C63.5627 29.1158 63.3003 29.0266 63.0074 28.9494L62.0406 28.6857C61.3854 28.5073 60.866 28.2449 60.4825 27.8987C60.1017 27.5524 59.9112 27.0943 59.9112 26.5244C59.9112 26.053 60.0391 25.6415 60.2947 25.2899C60.5504 24.9384 60.8967 24.6654 61.3335 24.4709C61.7702 24.2739 62.263 24.1753 62.8116 24.1753C63.3656 24.1753 63.8543 24.2725 64.2778 24.467C64.7039 24.6614 65.0395 24.929 65.2845 25.27C65.5296 25.6082 65.6574 25.997 65.6681 26.4365H64.4775ZM70.0236 26.3326V27.2914H66.6718V26.3326H70.0236ZM67.5707 24.8625H68.7652V30.6672C68.7652 30.8989 68.7998 31.0734 68.8691 31.1906C68.9383 31.3051 69.0275 31.3837 69.1367 31.4263C69.2486 31.4662 69.3698 31.4862 69.5003 31.4862C69.5962 31.4862 69.6801 31.4796 69.752 31.4662C69.8239 31.4529 69.8798 31.4423 69.9198 31.4343L70.1355 32.4211C70.0663 32.4477 69.9677 32.4743 69.8399 32.501C69.712 32.5303 69.5522 32.5462 69.3605 32.5489C69.0462 32.5542 68.7532 32.4983 68.4816 32.3811C68.2099 32.2639 67.9902 32.0828 67.8224 31.8378C67.6546 31.5928 67.5707 31.2851 67.5707 30.9149V24.8625ZM73.8639 32.5928C73.2886 32.5928 72.7865 32.461 72.3577 32.1973C71.9289 31.9337 71.596 31.5648 71.359 31.0907C71.1219 30.6166 71.0034 30.0627 71.0034 29.4288C71.0034 28.7922 71.1219 28.2356 71.359 27.7589C71.596 27.2821 71.9289 26.9119 72.3577 26.6482C72.7865 26.3846 73.2886 26.2527 73.8639 26.2527C74.4392 26.2527 74.9412 26.3846 75.37 26.6482C75.7988 26.9119 76.1317 27.2821 76.3687 27.7589C76.6058 28.2356 76.7243 28.7922 76.7243 29.4288C76.7243 30.0627 76.6058 30.6166 76.3687 31.0907C76.1317 31.5648 75.7988 31.9337 75.37 32.1973C74.9412 32.461 74.4392 32.5928 73.8639 32.5928ZM73.8679 31.5901C74.2407 31.5901 74.5497 31.4915 74.7947 31.2945C75.0397 31.0974 75.2208 30.835 75.338 30.5074C75.4579 30.1798 75.5178 29.819 75.5178 29.4248C75.5178 29.0333 75.4579 28.6737 75.338 28.3461C75.2208 28.0159 75.0397 27.7509 74.7947 27.5511C74.5497 27.3514 74.2407 27.2515 73.8679 27.2515C73.4923 27.2515 73.1807 27.3514 72.933 27.5511C72.688 27.7509 72.5056 28.0159 72.3857 28.3461C72.2685 28.6737 72.2099 29.0333 72.2099 29.4248C72.2099 29.819 72.2685 30.1798 72.3857 30.5074C72.5056 30.835 72.688 31.0974 72.933 31.2945C73.1807 31.4915 73.4923 31.5901 73.8679 31.5901ZM78.0576 32.469V26.3326H79.2122V27.3074H79.2761C79.388 26.9772 79.5851 26.7175 79.8674 26.5284C80.1524 26.3366 80.4746 26.2407 80.8342 26.2407C80.9088 26.2407 80.9967 26.2434 81.0979 26.2487C81.2017 26.2541 81.283 26.2607 81.3416 26.2687V27.4113C81.2936 27.398 81.2084 27.3833 81.0859 27.3673C80.9634 27.3487 80.8409 27.3394 80.7183 27.3394C80.436 27.3394 80.1843 27.3993 79.9633 27.5192C79.7449 27.6363 79.5718 27.8001 79.4439 28.0105C79.3161 28.2183 79.2522 28.4553 79.2522 28.7217V32.469H78.0576ZM84.8003 32.5928C84.1957 32.5928 83.675 32.4637 83.2382 32.2053C82.8041 31.9443 82.4685 31.5781 82.2315 31.1067C81.9971 30.6326 81.8799 30.0773 81.8799 29.4408C81.8799 28.8122 81.9971 28.2582 82.2315 27.7788C82.4685 27.2994 82.7987 26.9252 83.2222 26.6562C83.6484 26.3872 84.1464 26.2527 84.7164 26.2527C85.0626 26.2527 85.3982 26.31 85.7231 26.4245C86.048 26.539 86.3397 26.7188 86.598 26.9638C86.8564 27.2089 87.0601 27.5271 87.2093 27.9187C87.3584 28.3075 87.433 28.7803 87.433 29.3369V29.7604H82.5551V28.8655H86.2624C86.2624 28.5512 86.1985 28.2729 86.0707 28.0305C85.9428 27.7855 85.7631 27.5924 85.5313 27.4512C85.3023 27.3101 85.0333 27.2395 84.7244 27.2395C84.3888 27.2395 84.0958 27.3221 83.8454 27.4872C83.5978 27.6497 83.406 27.8627 83.2702 28.1264C83.137 28.3874 83.0704 28.6711 83.0704 28.9773V29.6765C83.0704 30.0866 83.1423 30.4355 83.2861 30.7232C83.4326 31.0108 83.6364 31.2305 83.8974 31.3823C84.1584 31.5315 84.4633 31.6061 84.8122 31.6061C85.0386 31.6061 85.245 31.5741 85.4315 31.5102C85.6179 31.4436 85.779 31.3451 85.9149 31.2146C86.0507 31.0841 86.1546 30.9229 86.2265 30.7312L87.3571 30.9349C87.2665 31.2678 87.1041 31.5595 86.8697 31.8098C86.638 32.0575 86.3463 32.2506 85.9948 32.3891C85.6459 32.5249 85.2477 32.5928 84.8003 32.5928Z" fill="white"/>
<defs>
<clipPath id="clip0_2038_1671">
<rect width="17.9999" height="17.9999" fill="white" transform="translate(8.875 13.317)"/>
</clipPath>
</defs>
</svg>
