<svg width="71" height="65" viewBox="0 0 71 65" fill="none" xmlns="http://www.w3.org/2000/svg">
<path fill-rule="evenodd" clip-rule="evenodd" d="M47.197 35.4663L38.3594 42.2197L43.0989 52.3599C43.2512 52.6855 43.7371 52.7188 43.94 52.4175L46.9995 47.8744L52.6838 48.9472C53.0613 49.0183 53.3685 48.6706 53.2161 48.3443L47.197 35.4663Z" fill="#F58300"/>
<path fill-rule="evenodd" clip-rule="evenodd" d="M47.1919 35.4663L46.0234 36.3593L51.6253 48.3443C51.691 48.4851 51.6712 48.6297 51.5972 48.7431L52.6789 48.9472C53.0565 49.0183 53.3636 48.6706 53.2112 48.3443L47.1919 35.4663ZM42.8047 51.741L45.5875 47.6088L46.9945 47.8744L43.9351 52.4174C43.7321 52.7187 43.2461 52.6854 43.0939 52.3598L42.8047 51.741Z" fill="#F58300"/>
<path fill-rule="evenodd" clip-rule="evenodd" d="M34.1524 41.6955L27.7982 54.272C27.6358 54.5935 27.1489 54.6138 26.9555 54.3072L24.0403 49.6844L18.3244 50.6047C17.9448 50.6657 17.6485 50.3097 17.8112 49.9877L24.0959 37.5488L34.1524 41.6955Z" fill="#C84A4A"/>
<path fill-rule="evenodd" clip-rule="evenodd" d="M34.1525 41.6954L27.7982 54.2719C27.6358 54.5934 27.1489 54.6137 26.9555 54.3071L24.0403 49.6844L18.3244 50.6046C17.9448 50.6656 17.6485 50.3096 17.8112 49.9876L18.1976 49.2228L23.2376 48.4114L26.1528 53.0342C26.3462 53.3408 26.833 53.3206 26.9955 52.999L32.9559 41.202L34.1525 41.6954Z" fill="#C84A4A"/>
<path fill-rule="evenodd" clip-rule="evenodd" d="M37.9242 10.6977C41.7237 13.3184 40.862 13.0294 45.6008 13.2723C47.4209 13.3655 48.8992 14.5086 49.3151 16.1441C49.7078 17.6888 49.8999 19.6365 51.1797 20.7434L53.3997 22.6634C54.729 23.8129 55.0641 25.5641 54.2417 27.0633C52.1006 30.9663 52.2598 30.1342 52.8231 34.4767C53.0394 36.1446 52.0746 37.6845 50.3989 38.3458C46.036 40.0676 46.7385 39.5244 44.1408 43.1846C43.143 44.5904 41.3296 45.1986 39.5846 44.7127C35.0416 43.4475 35.9585 43.4475 31.4154 44.7127C29.6704 45.1986 27.857 44.5904 26.8593 43.1846C24.2615 39.5245 24.964 40.0676 20.6012 38.3458C18.9254 37.6845 17.9605 36.1446 18.1769 34.4767C18.7402 30.1342 18.8994 30.9663 16.7583 27.0633C15.936 25.5641 16.2711 23.8129 17.6002 22.6634C21.0608 19.6705 20.6024 20.4022 21.6848 16.1441C22.1006 14.5085 23.5789 13.3655 25.3991 13.2723C30.1378 13.0294 29.2762 13.3184 33.0758 10.6977C34.535 9.69111 36.4647 9.69111 37.9242 10.6977Z" fill="#80ACED"/>
<path fill-rule="evenodd" clip-rule="evenodd" d="M37.9208 10.6974C41.7203 13.3181 40.8587 13.0291 45.5974 13.2721C47.4175 13.3654 48.8958 14.5083 49.3117 16.1439C49.7044 17.6885 49.8965 19.6364 51.1764 20.7432L53.3964 22.6632C54.7256 23.8127 55.0607 25.5639 54.2383 27.0631C52.0972 30.9661 52.2565 30.1341 52.8197 34.4765C53.036 36.1445 52.0712 37.6844 50.3955 38.3457C46.0326 40.0675 46.7351 39.5243 44.1374 43.1845C43.169 44.5488 41.4323 45.1619 39.7356 44.7525C40.6651 44.5224 41.4935 43.9819 42.0595 43.1845C44.6573 39.5243 43.9548 40.0675 48.3176 38.3457C49.9934 37.6844 50.9583 36.1445 50.7419 34.4765C50.1786 30.1341 50.0194 30.9662 52.1604 27.0631C52.9828 25.5639 52.6477 23.8128 51.3186 22.6632L49.0986 20.7432C47.8186 19.6364 47.6265 17.6886 47.2338 16.1439C46.818 14.5083 45.3397 13.3654 43.5196 13.2721C38.7809 13.0291 39.6425 13.3181 35.8429 10.6974C35.4138 10.4015 34.9441 10.1926 34.4577 10.0706C35.6257 9.77791 36.8905 9.98674 37.9208 10.6974ZM34.4575 43.8858C33.7635 44.0313 32.8686 44.3067 31.4119 44.7124C30.6567 44.9227 29.8887 44.9279 29.1797 44.7524C29.2312 44.74 29.2827 44.7267 29.334 44.7124C32.4203 43.8528 32.9871 43.5775 34.4575 43.8858Z" fill="#4075BC"/>
<path d="M35.4998 38.1656C41.9459 38.1656 47.1715 33.3504 47.1715 27.4105C47.1715 21.4706 41.9459 16.6554 35.4998 16.6554C29.0537 16.6554 23.8281 21.4706 23.8281 27.4105C23.8281 33.3504 29.0537 38.1656 35.4998 38.1656Z" fill="#E8F1FF"/>
<path fill-rule="evenodd" clip-rule="evenodd" d="M35.4998 16.6554C35.8138 16.6554 36.1247 16.6671 36.4324 16.6896C30.4225 17.1275 25.6934 21.76 25.6934 27.4106C25.6934 33.0611 30.4225 37.6935 36.4324 38.1315C36.1246 38.1539 35.8137 38.1657 35.4998 38.1657C29.0537 38.1657 23.8281 33.3504 23.8281 27.4106C23.8281 21.4706 29.0537 16.6554 35.4998 16.6554Z" fill="#C1C1C1"/>
<path fill-rule="evenodd" clip-rule="evenodd" d="M35.8337 19.5751L42.7039 23.2301C42.9131 23.3415 43.0328 23.5325 43.0328 23.7551V31.0652C43.0328 31.2879 42.9131 31.4789 42.7039 31.5903L35.8337 35.2453C35.6245 35.3566 35.385 35.3566 35.1758 35.2453L28.3055 31.5903C28.0963 31.4789 27.9766 31.2879 27.9766 31.0652V23.7551C27.9766 23.5325 28.0963 23.3414 28.3055 23.2301L35.1758 19.5751C35.3851 19.4637 35.6245 19.4637 35.8337 19.5751Z" fill="#FBCEA1"/>
<path fill-rule="evenodd" clip-rule="evenodd" d="M35.8335 19.5751L42.7037 23.2301C42.8083 23.2858 42.8906 23.3614 42.9467 23.4509L35.5046 27.4102L28.0625 23.4509C28.1186 23.3614 28.2008 23.2858 28.3054 23.2301L35.1757 19.5751C35.3849 19.4637 35.6243 19.4637 35.8335 19.5751Z" fill="#FFA86C"/>
<path fill-rule="evenodd" clip-rule="evenodd" d="M42.9421 23.451C42.9982 23.5406 43.0281 23.6439 43.0281 23.7552V31.0654C43.0281 31.288 42.9083 31.4791 42.6991 31.5904L35.8289 35.2455C35.7243 35.3011 35.6121 35.3289 35.5 35.3289V27.4104L42.9421 23.451Z" fill="#FBCEA1"/>
<path fill-rule="evenodd" clip-rule="evenodd" d="M30.6484 24.8271L32.8316 25.9886L40.3597 21.9835L38.1766 20.822L30.6484 24.8271Z" fill="#FBCEA1"/>
<path fill-rule="evenodd" clip-rule="evenodd" d="M32.3382 28.8801L30.9773 28.1561C30.7681 28.0448 30.6484 27.8537 30.6484 27.6312V24.8269L32.8316 25.9884V28.6176C32.8316 28.7289 32.7717 28.8245 32.6672 28.8801C32.5625 28.9357 32.4428 28.9357 32.3382 28.8801Z" fill="#FFA86C"/>
<path fill-rule="evenodd" clip-rule="evenodd" d="M36.3151 34.1194V27.8447L42.2129 24.7072V30.9818L36.3151 34.1194ZM35.9504 9.21472H35.0503C34.1822 9.29006 33.3303 9.5839 32.5872 10.0964C32.2346 10.34 31.9217 10.5585 31.64 10.7544C29.3762 12.3356 29.3762 12.3356 26.5389 12.4655C26.1862 12.4818 25.7946 12.5 25.3541 12.5221C23.181 12.6335 21.3878 14.0206 20.8911 15.9732C20.7904 16.3689 20.7035 16.7213 20.6252 17.0379C19.9927 19.5905 19.9927 19.5905 17.9102 21.3706C17.6511 21.5917 17.3637 21.8375 17.0427 22.1161C15.4553 23.4881 15.0484 25.6132 16.0301 27.4027C16.2288 27.7653 16.4083 28.0871 16.5695 28.3762C17.865 30.706 17.865 30.706 17.5124 33.3037C17.4678 33.626 17.4197 33.9846 17.3665 34.3879C17.1089 36.3794 18.2792 38.2479 20.2801 39.0372C20.6851 39.1973 21.0468 39.3379 21.3723 39.4639C21.6371 39.5669 21.8737 39.6589 22.0886 39.7442L16.6885 50.4326C16.5604 50.6864 16.5958 50.9849 16.7807 51.2068C16.9663 51.4292 17.2687 51.5384 17.5686 51.4902L23.6223 50.5153L26.7101 55.4113C26.857 55.6439 27.1261 55.7853 27.4155 55.7853C27.4275 55.7853 27.4399 55.7853 27.4524 55.7845C27.756 55.7721 28.0263 55.605 28.1543 55.3511L33.4178 44.9339C35.518 44.3466 35.7302 44.4059 38.2143 45.1125C38.4508 45.1797 38.7056 45.2527 38.982 45.3301L42.7041 53.4247C42.8222 53.683 43.0885 53.8589 43.3923 53.8806C43.4124 53.8824 43.4341 53.8828 43.4541 53.8828C43.7358 53.8828 43.9978 53.7497 44.1475 53.5278L47.3883 48.7162L53.4084 49.8521C53.7058 49.9083 54.0125 49.8075 54.2044 49.5904C54.3959 49.3733 54.4411 49.0757 54.3206 48.8188L49.8993 39.3592C50.1522 39.2606 50.4242 39.1545 50.7199 39.0373C52.7203 38.248 53.8917 36.3795 53.6325 34.388C53.5806 33.9847 53.5317 33.6257 53.4876 33.3033C53.1339 30.7061 53.1339 30.7061 54.4305 28.3763C54.5917 28.0872 54.7702 27.7653 54.9697 27.4027C55.9515 25.6133 55.545 23.4883 53.9577 22.1162C53.6362 21.8382 53.3493 21.5919 53.0902 21.3712C51.0071 19.5906 51.0071 19.5906 50.3752 17.0384C50.297 16.7219 50.2091 16.369 50.1093 15.9733C49.6126 14.0206 47.8195 12.6336 45.6459 12.5222C45.2053 12.5001 44.8133 12.482 44.4616 12.4656C41.6242 12.3356 41.6242 12.3356 39.3589 10.7545C39.0787 10.5586 38.7658 10.3402 38.4132 10.0965C37.6705 9.5839 36.8184 9.29015 35.9504 9.21472ZM28.7878 24.7072L29.8286 25.2611V27.9818C29.8286 28.2502 29.9846 28.4982 30.2365 28.6326L32.4197 29.7942C32.5464 29.8613 32.687 29.8945 32.8276 29.8945C32.9682 29.8945 33.1093 29.8613 33.2355 29.7942C33.4874 29.6597 33.6434 29.4117 33.6434 29.1433V27.2907L34.6841 27.8447V34.1194L28.7878 30.9818V24.7072ZM32.8276 25.1214L38.7244 21.9839L38.1726 21.6903L32.2753 24.8279L32.8276 25.1214ZM31.4596 26.1291L32.0124 26.4227V27.8415L31.4596 27.548V26.1291ZM35.4999 26.543L41.3972 23.4059L40.3554 22.8514L34.4591 25.989L35.4999 26.543ZM35.4999 20.2683L36.5417 20.8223L30.6444 23.9599L29.6031 23.4059L35.4999 20.2683ZM35.092 18.7499L27.5642 22.755C27.3113 22.8894 27.1563 23.1371 27.1563 23.4059V31.4161C27.1563 31.6845 27.3113 31.9325 27.5642 32.0665L35.092 36.0721C35.2182 36.1389 35.3588 36.1725 35.4999 36.1725C35.6405 36.1725 35.7821 36.1389 35.9073 36.0721L43.436 32.0665C43.6889 31.9326 43.8439 31.6845 43.8439 31.4161V23.4059C43.8439 23.1371 43.6889 22.8894 43.436 22.755L35.9073 18.7499C35.6559 18.6155 35.3449 18.6155 35.092 18.7499ZM35.4999 37.4144C41.4859 37.4144 46.3558 32.9269 46.3558 27.4109C46.3558 21.895 41.4859 17.4074 35.4999 17.4074C29.5134 17.4074 24.6444 21.8949 24.6444 27.4109C24.6444 32.9268 29.5134 37.4144 35.4999 37.4144ZM35.4999 15.9041C28.6146 15.9041 23.0135 21.0664 23.0135 27.4109C23.0135 33.7555 28.6146 38.9172 35.4999 38.9172C42.3851 38.9172 47.9868 33.7555 47.9868 27.4109C47.9868 21.0664 42.3851 15.9041 35.4999 15.9041ZM53.5146 26.7247C54.1763 25.5172 53.9129 24.1381 52.8413 23.2117C52.5228 22.9358 52.2372 22.6918 51.981 22.4729C49.5976 20.4358 49.5079 20.2926 48.7852 17.3726C48.708 17.0582 48.6211 16.7084 48.5208 16.3158C48.1868 14.9982 47.0222 14.0983 45.5553 14.0232C45.1192 14.0006 44.7296 13.983 44.3802 13.9666C41.1341 13.818 40.9662 13.7615 38.3745 11.9526C38.0962 11.758 37.7853 11.5413 37.4355 11.3C36.2604 10.4886 34.7402 10.4886 33.5646 11.3C33.2138 11.5414 32.9043 11.758 32.6245 11.9526C30.0343 13.7615 29.8664 13.818 26.6193 13.9666C26.2704 13.983 25.8808 14.0006 25.4436 14.0232C23.9778 14.0983 22.8137 14.9982 22.4792 16.3158C22.3794 16.7084 22.2925 17.0582 22.2152 17.3721C21.4911 20.2926 21.4014 20.4354 19.019 22.4724C18.7623 22.6918 18.4767 22.9358 18.1576 23.2117C17.0871 24.1381 16.8232 25.5172 17.4858 26.7247C17.6835 27.0842 17.8611 27.4039 18.0199 27.6909C19.5031 30.3557 19.5348 30.5185 19.1303 33.4902C19.0867 33.8103 19.0386 34.1663 18.9863 34.5665C18.8122 35.9102 19.5717 37.123 20.9225 37.6558C21.3241 37.8141 21.683 37.9534 22.005 38.0789C25.0002 39.2418 25.1379 39.348 26.9013 41.8643C27.0909 42.1348 27.302 42.4364 27.5415 42.7738C28.3452 43.9066 29.7732 44.3854 31.1792 43.9937C31.598 43.8774 31.9705 43.7714 32.3048 43.6763C33.8571 43.2351 34.679 43.0139 35.4996 43.0139C36.3211 43.0139 37.1425 43.2351 38.6954 43.6763C39.0297 43.7714 39.4021 43.8775 39.8201 43.9937C41.2265 44.3854 42.6541 43.9066 43.4582 42.7738L43.7427 42.3719C45.8977 39.3307 45.9999 39.2484 49.2201 37.9914C49.4821 37.8893 49.7667 37.7782 50.0776 37.6557C51.4269 37.1229 52.188 35.9101 52.0133 34.5664C51.9614 34.1658 51.9126 33.8099 51.8699 33.4901C51.465 30.5183 51.4957 30.3556 52.9789 27.6903C53.1394 27.4034 53.3169 27.0842 53.5146 26.7247ZM47.1581 47.1383C46.8236 47.0751 46.4825 47.2108 46.3016 47.4779L43.5919 51.5025L40.8894 45.6248C42.4522 45.5907 43.9253 44.862 44.8237 43.5965L45.1092 43.1934C46.6279 41.0498 46.948 40.5978 48.4048 39.9607L52.2056 48.0907L47.1581 47.1383ZM27.3349 53.4113L24.7476 49.3072C24.5753 49.0352 24.2379 48.8902 23.9016 48.9446L18.8268 49.7617L23.5485 40.4171C24.2452 40.8451 24.6171 41.3756 25.5317 42.6796C25.7222 42.9524 25.9353 43.2562 26.1771 43.5966C27.3067 45.188 29.3436 45.933 31.3273 45.5112L27.3349 53.4113Z" fill="#1E1E1E"/>
</svg>
