<svg width="36" height="36" viewBox="0 0 36 36" fill="none" xmlns="http://www.w3.org/2000/svg">
<rect width="36" height="36" rx="7" fill="#FFF2E7"/>
<path d="M15.4784 18.3633C15.4866 17.4993 15.7272 16.652 16.1767 15.9046C16.6262 15.1572 17.2692 14.5352 18.0427 14.0996C18.1967 13.9822 18.3795 13.9053 18.5735 13.8764C18.7674 13.8475 18.9657 13.8675 19.1492 13.9345C19.3327 14.0016 19.4951 14.1134 19.6205 14.2589C19.7459 14.4045 19.8301 14.579 19.8649 14.7653C20.0542 15.3013 20.2833 15.8246 20.4669 16.3625C20.5159 16.524 20.6082 16.6701 20.7345 16.786C20.8609 16.902 21.0167 16.9836 21.1863 17.0228C21.7486 17.1789 22.3109 17.3333 22.8703 17.4958C22.9438 17.5092 23.0138 17.5366 23.0762 17.5765C23.1386 17.6163 23.1921 17.6677 23.2337 17.7278C23.2752 17.7878 23.3039 17.8553 23.3181 17.9261C23.3322 17.997 23.3316 18.0699 23.3162 18.1405C23.3076 18.2167 23.2822 18.2903 23.2417 18.3563C23.2011 18.4222 23.1464 18.479 23.0812 18.5228C23.016 18.5666 22.9417 18.5964 22.8635 18.6102C22.7854 18.6239 22.7051 18.6214 22.628 18.6026C22.0648 18.5268 21.5034 18.4419 20.9449 18.3378C20.5262 18.2772 20.1291 18.1189 19.7882 17.8765C19.4474 17.6341 19.1731 17.315 18.9893 16.9469C18.8947 16.7643 18.7791 16.5899 18.6551 16.3817C18.2198 16.7909 17.9274 17.3207 17.8184 17.8976C17.7493 18.1625 17.8184 18.2885 18.091 18.3789C18.9013 18.6464 19.7059 18.9323 20.5067 19.2263C20.6662 19.2633 20.8135 19.3385 20.935 19.4448C21.0564 19.5512 21.1482 19.6854 21.2018 19.8349C21.2553 19.9845 21.269 20.1447 21.2414 20.3007C21.2139 20.4568 21.1461 20.6036 21.0443 20.7277C20.643 21.3669 20.2132 21.9897 19.7882 22.6153C19.4872 23.0582 19.4815 23.0545 19.7882 23.5038C19.8072 23.5312 19.8403 23.5595 19.8403 23.5869C19.8403 23.734 19.8867 23.9276 19.809 24.0153C19.7519 24.0696 19.6826 24.1104 19.6064 24.1344C19.5301 24.1585 19.4492 24.1652 19.3698 24.154C18.9614 24.0424 18.5616 23.9033 18.1734 23.7376C18.0978 23.7139 18.0288 23.674 17.9714 23.621C17.914 23.5681 17.8697 23.5034 17.8417 23.4316C17.8137 23.3599 17.8028 23.2831 17.8097 23.2067C17.8167 23.1304 17.8413 23.0565 17.8818 22.9906C18.1791 22.3008 18.4772 21.6111 18.7763 20.9213C18.8009 20.8637 18.8189 20.8044 18.8445 20.7386C18.2112 20.556 17.5922 20.3788 16.9797 20.1907C16.7102 20.1185 16.4505 20.0155 16.2063 19.8839C15.9488 19.7224 15.7438 19.494 15.615 19.2249C15.4862 18.9559 15.4388 18.6572 15.4784 18.3633Z" fill="#EFA937"/>
<path d="M14.0242 19.1902C13.4723 19.1966 12.9195 19.1848 12.3677 19.1957C12.1389 19.2005 11.9113 19.2271 11.688 19.2752C11.2186 19.3709 10.7859 19.59 10.4377 19.9083C10.0896 20.2267 9.83952 20.6318 9.71532 21.0788L9.51657 21.6532L9.39732 21.6395C9.22183 21.2451 9.15663 20.8133 9.20828 20.387C9.25994 19.9607 9.42658 19.555 9.69163 19.2103C9.15965 19.0998 8.8956 18.8579 8.88613 18.4414C8.86089 17.3644 8.84389 16.2872 8.83506 15.2096C8.82947 15.1083 8.84578 15.0069 8.88301 14.9121C8.92024 14.8172 8.97752 14.7308 9.05125 14.6585C9.12498 14.5861 9.21353 14.5294 9.31124 14.4919C9.40895 14.4544 9.51363 14.4369 9.61872 14.4406C10.7824 14.4303 11.9462 14.4303 13.1098 14.4406C13.3385 14.4405 13.5594 14.5203 13.7318 14.6652C13.9043 14.81 14.0165 15.0102 14.0479 15.2287C14.2599 16.2929 14.4691 17.3584 14.6754 18.425C14.7034 18.5186 14.7074 18.6174 14.687 18.7128C14.6666 18.8083 14.6225 18.8975 14.5584 18.9728C14.4943 19.0481 14.4121 19.1073 14.3191 19.1452C14.226 19.183 14.1248 19.1985 14.0242 19.1902Z" fill="#EFA937"/>
<path d="M23.1134 20.204C23.2885 20.1191 23.3595 20.0378 23.2847 19.8488C23.2314 19.7 23.1909 19.5473 23.1636 19.3922C23.1125 19.1493 23.1976 18.9831 23.3869 18.9356C23.5942 18.8817 23.7589 18.9913 23.828 19.236C23.8905 19.4561 23.9464 19.6789 24.0107 19.9246C24.2409 19.9122 24.4716 19.9122 24.7018 19.9246C25.2715 19.9925 25.8059 20.227 26.2333 20.5966C26.6608 20.9662 26.9607 21.4532 27.0929 21.9921C27.2239 22.5322 27.1812 23.0979 26.9704 23.614C26.7597 24.13 26.391 24.5718 25.9134 24.8806C25.4356 25.1853 24.8727 25.3418 24.3001 25.3289C23.7275 25.316 23.1727 25.1344 22.7102 24.8085C22.3244 24.5329 22.018 24.1668 21.8202 23.7448C21.6225 23.3229 21.5399 22.8592 21.5803 22.3977C21.6207 21.9363 21.7828 21.4925 22.0511 21.1085C22.3195 20.7246 22.6851 20.4132 23.1134 20.204ZM22.7887 23.1902C22.9357 23.5698 23.2238 23.883 23.5971 24.0687C23.9704 24.2544 24.402 24.2994 24.8078 24.1948C25.2228 24.0836 25.5783 23.8244 25.8025 23.4696C26.0266 23.1148 26.1025 22.6911 26.0147 22.2843C25.9348 21.906 25.7152 21.5687 25.3967 21.335C25.0782 21.1013 24.6825 20.9872 24.2834 21.014C24.3582 21.2935 24.4254 21.5684 24.5105 21.8359C24.5247 21.8825 24.6052 21.9145 24.6658 21.9437C24.7641 21.9845 24.8523 22.045 24.9247 22.1211C24.997 22.1972 25.0518 22.2872 25.0854 22.3852C25.119 22.4833 25.1308 22.587 25.1198 22.6898C25.1088 22.7925 25.0753 22.8918 25.0217 22.9811C24.9707 23.0665 24.9025 23.141 24.8209 23.2003C24.7393 23.2595 24.6462 23.3023 24.5471 23.3259C24.4479 23.3495 24.3449 23.3536 24.2441 23.3378C24.1433 23.322 24.0469 23.2867 23.9606 23.2341C23.8715 23.1774 23.7957 23.1035 23.7377 23.0171C23.6797 22.9307 23.6409 22.8336 23.6238 22.7321C23.6066 22.6305 23.6114 22.5266 23.638 22.4269C23.6645 22.3272 23.7121 22.2339 23.7779 22.1528C23.8267 22.0744 23.8451 21.9819 23.83 21.8916C23.7836 21.6515 23.7116 21.4168 23.6406 21.1611C23.2617 21.3357 22.9642 21.6407 22.8066 22.0162C22.6489 22.3917 22.6426 22.8105 22.7887 23.1902Z" fill="#EFA937"/>
<path d="M12.9891 19.917C13.358 19.9124 13.7242 19.9788 14.0662 20.1124C14.4082 20.246 14.7192 20.444 14.9809 20.695C15.2426 20.9459 15.4499 21.2447 15.5904 21.5738C15.731 21.903 15.802 22.2559 15.7995 22.6119C15.8027 22.9677 15.733 23.3206 15.5942 23.6502C15.4555 23.9799 15.2506 24.2799 14.9912 24.5328C14.7318 24.7857 14.4232 24.9867 14.083 25.1241C13.7428 25.2614 13.3777 25.3325 13.0089 25.3333C12.64 25.3337 12.2747 25.2639 11.934 25.1276C11.5932 24.9914 11.2836 24.7914 11.0232 24.5394C10.7628 24.2873 10.5566 23.988 10.4166 23.6588C10.2765 23.3296 10.2053 22.9769 10.2071 22.621C10.2053 21.9068 10.4972 21.2211 11.0187 20.7142C11.5402 20.2073 12.2488 19.9206 12.9891 19.917ZM13.0099 24.2529C13.4567 24.2481 13.8837 24.0742 14.1989 23.7686C14.514 23.463 14.6921 23.0502 14.6948 22.6192C14.6916 22.1873 14.5123 21.774 14.1957 21.4687C13.8792 21.1633 13.4509 20.9904 13.0033 20.9873C12.7819 20.9881 12.5629 21.0312 12.359 21.1142C12.155 21.1972 11.9702 21.3184 11.8151 21.4707C11.66 21.6231 11.5377 21.8036 11.4554 22.0018C11.373 22.2 11.3323 22.412 11.3354 22.6255C11.3324 22.8388 11.3734 23.0506 11.4562 23.2484C11.5389 23.4462 11.6617 23.6261 11.8174 23.7776C11.973 23.9291 12.1583 24.0491 12.3625 24.1308C12.5668 24.2124 12.786 24.2539 13.0071 24.2529H13.0099Z" fill="#EFA937"/>
<path d="M22.821 12.5185C22.2657 12.4155 21.7172 12.2804 21.1786 12.1139C20.8246 12.0126 20.6353 12.1203 20.6855 12.4728C20.7388 12.772 20.8079 13.0682 20.8928 13.3605C20.9155 13.4744 20.9715 13.5798 21.0542 13.6641C21.1369 13.7484 21.2428 13.8081 21.3595 13.8363C21.8413 13.9605 22.324 14.081 22.8106 14.1861C23.0377 14.2345 23.0946 14.3084 22.9497 14.4929C22.8597 14.6299 22.7271 14.7359 22.5708 14.7957C22.4146 14.8556 22.2427 14.8663 22.0798 14.8262C21.4867 14.6915 20.9043 14.516 20.3371 14.3011C19.9648 14.1498 19.6507 13.8901 19.4387 13.5582C19.2268 13.2264 19.1275 12.839 19.1548 12.45C19.1962 12.2249 19.258 12.0036 19.3394 11.7889C19.4957 11.436 19.7619 11.1388 20.1011 10.9385C20.4404 10.7382 20.8358 10.6448 21.2326 10.6711C21.6596 10.6934 22.0703 10.8364 22.4136 11.0824C22.7568 11.3285 23.0174 11.6666 23.1627 12.0546C23.3037 12.4272 23.2176 12.5797 22.821 12.5185Z" fill="#EFA937"/>
<path d="M25.379 19.3488C25.1427 19.287 24.9147 19.1991 24.6994 19.0867C24.5208 18.9969 24.3716 18.8609 24.2685 18.694C24.1654 18.5271 24.1124 18.3358 24.1154 18.1415C24.1133 17.8479 24.2055 17.5608 24.3792 17.3197C24.5529 17.0786 24.7996 16.8951 25.0856 16.7946C25.1489 16.7471 25.2228 16.7143 25.3015 16.6989C25.3801 16.6834 25.4614 16.6856 25.5389 16.7054C25.6165 16.7252 25.6883 16.762 25.7487 16.813C25.8091 16.8639 25.8566 16.9276 25.8874 16.9991C26.1376 17.3907 26.2585 17.8465 26.2338 18.3059C26.1793 18.5646 26.1065 18.8193 26.0161 19.0685C25.9992 19.131 25.968 19.1892 25.9248 19.2387C25.8817 19.2882 25.8276 19.3278 25.7666 19.3547C25.7056 19.3815 25.6392 19.3949 25.5722 19.3939C25.5051 19.3929 25.4391 19.3775 25.379 19.3488Z" fill="#EFA937"/>
<path d="M21.0736 12.2773C21.1134 12.2654 21.2327 12.3686 21.2393 12.4298C21.2459 12.491 21.1711 12.5768 21.0935 12.722C20.9865 12.5878 20.8843 12.5147 20.8909 12.4481C20.8976 12.3814 20.9969 12.2956 21.0736 12.2773Z" fill="#EFA937"/>
<path d="M12.9643 21.8874C13.0682 21.8812 13.1724 21.8954 13.2705 21.9292C13.3686 21.963 13.4585 22.0156 13.5349 22.0839C13.6113 22.1522 13.6725 22.2348 13.7148 22.3266C13.7571 22.4184 13.7798 22.5175 13.7812 22.618C13.7808 22.8126 13.7032 22.9998 13.5643 23.1411C13.4255 23.2824 13.2358 23.367 13.0343 23.3778C12.9322 23.3805 12.8305 23.3638 12.735 23.3286C12.6396 23.2933 12.5525 23.2403 12.4784 23.1724C12.4043 23.1045 12.3448 23.0231 12.3035 22.933C12.2621 22.8429 12.2396 22.7457 12.2373 22.6472C12.2323 22.551 12.2473 22.4549 12.2813 22.3643C12.3153 22.2738 12.3677 22.1908 12.4354 22.12C12.5031 22.0493 12.5847 21.9923 12.6755 21.9523C12.7663 21.9124 12.8645 21.8903 12.9643 21.8874Z" fill="#EFA937"/>
</svg>
