<svg width="70" height="65" viewBox="0 0 70 65" fill="none" xmlns="http://www.w3.org/2000/svg">
<path d="M15.2344 21.0597H38.4906V37.6284H15.2344V21.0597Z" fill="#C84A4A"/>
<path d="M15.2344 21.0597H38.4906V22.8344H15.2344V21.0597Z" fill="#C84A4A"/>
<path d="M22.7891 21.0597H30.9282V37.6284H22.7891V21.0597Z" fill="#F58300"/>
<path d="M12.3281 47.0958V37.6281H41.3982V47.0958H23.9098C22.6297 44.8338 19.7918 44.0568 17.5694 45.3597C16.8599 45.7756 16.2713 46.3747 15.8626 47.0968H12.3281V47.0958Z" fill="#3083FF"/>
<path d="M41.3984 47.0959V28.7524H53.0261L57.6777 37.0363V47.0959H54.1433C52.8632 44.834 50.0252 44.057 47.8028 45.3598C47.0933 45.7758 46.5048 46.3749 46.0961 47.097H41.3984V47.0959Z" fill="#80ACED"/>
<path d="M43.7198 37.0361V31.1189H51.673L55.0156 37.0361H43.7188H43.7198Z" fill="#C1C1C1"/>
<path d="M10.5781 49.4624V47.0957H15.8573C15.4446 47.8137 15.2278 48.6304 15.2298 49.4624H10.5781Z" fill="#727272"/>
<path d="M24.5338 49.4624C24.5358 48.6304 24.319 47.8127 23.9062 47.0957H46.0923C45.6796 47.8137 45.4627 48.6304 45.4647 49.4624H24.5338Z" fill="#727272"/>
<path d="M54.7682 49.4624C54.7702 48.6304 54.5533 47.8127 54.1406 47.0957H59.4198V49.4624H54.7682Z" fill="#727272"/>
<path d="M12.9062 16.3253H40.8132V21.0597H12.9062V16.3253Z" fill="#FFA86C"/>
<path d="M20.4688 16.3253H33.2595V21.0597H20.4688V16.3253Z" fill="#FFA86C"/>
<path d="M19.886 54.197C22.4551 54.197 24.5377 52.0774 24.5377 49.4626C24.5377 46.8479 22.4551 44.7283 19.886 44.7283C17.317 44.7283 15.2344 46.8479 15.2344 49.4626C15.2344 52.0774 17.317 54.197 19.886 54.197Z" fill="#626262"/>
<path d="M19.8844 51.2374C20.8474 51.2374 21.6281 50.4428 21.6281 49.4626C21.6281 48.4824 20.8474 47.6879 19.8844 47.6879C18.9213 47.6879 18.1406 48.4824 18.1406 49.4626C18.1406 50.4428 18.9213 51.2374 19.8844 51.2374Z" fill="#333333"/>
<path d="M50.1126 54.197C52.6816 54.197 54.7642 52.0774 54.7642 49.4626C54.7642 46.8479 52.6816 44.7283 50.1126 44.7283C47.5436 44.7283 45.4609 46.8479 45.4609 49.4626C45.4609 52.0774 47.5436 54.197 50.1126 54.197Z" fill="#626262"/>
<path d="M50.1187 51.2374C51.0818 51.2374 51.8625 50.4428 51.8625 49.4626C51.8625 48.4824 51.0818 47.6879 50.1187 47.6879C49.1557 47.6879 48.375 48.4824 48.375 49.4626C48.375 50.4428 49.1557 51.2374 50.1187 51.2374Z" fill="#333333"/>
<path d="M22.7891 21.0597H30.9282V22.8344H22.7891V21.0597Z" fill="#F58300"/>
<path d="M43.7202 37.6284H55.0171C55.3378 37.6284 55.5987 37.3629 55.5987 37.0365C55.5987 36.9327 55.5717 36.831 55.5217 36.7415L52.1791 30.8243C52.0752 30.6413 51.8833 30.5273 51.6755 30.5273H43.7222C43.4014 30.5273 43.1406 30.7918 43.1406 31.1193V37.0365C43.1406 37.3629 43.4004 37.6284 43.7222 37.6284H43.7202ZM44.3018 31.7112H51.3377L54.0118 36.4456H44.3018V31.7112Z" fill="#1E1E1E"/>
<path d="M59.4194 46.504H58.2563V37.0363C58.2563 36.9336 58.2303 36.8319 58.1793 36.7424L53.5277 28.4585C53.4237 28.2745 53.2319 28.1605 53.023 28.1605H41.3954C41.0746 28.1605 40.8138 28.425 40.8138 28.7525V37.0363H39.0701V21.6514H40.8138C41.1346 21.6514 41.3954 21.387 41.3954 21.0595V16.3251C41.3954 15.9987 41.1356 15.7332 40.8138 15.7332H36.1482C36.5329 15.2237 36.7417 14.6002 36.7447 13.9585C36.7427 12.3251 35.4427 11.0019 33.8378 10.9999H33.573C30.805 11.01 28.2499 12.5143 26.8619 14.9521C25.4719 12.5143 22.9167 11.01 20.1487 10.9999H19.8839C18.279 11.0019 16.979 12.3251 16.977 13.9585C16.979 14.6002 17.1888 15.2247 17.5735 15.7332H12.9069C12.5861 15.7332 12.3253 15.9977 12.3253 16.3251V21.0595C12.3253 21.386 12.5851 21.6514 12.9069 21.6514H14.6507V37.0363H12.3253C12.0046 37.0363 11.7437 37.3008 11.7437 37.6283V46.504H10.5816C10.2608 46.504 10 46.7685 10 47.096V49.4626C10 49.7891 10.2598 50.0546 10.5816 50.0546H14.6856C15.0054 52.9765 17.5915 55.0818 20.4635 54.7564C22.8937 54.4808 24.8123 52.528 25.0831 50.0546H44.9189C45.2386 52.9765 47.8258 55.0818 50.6967 54.7564C53.1269 54.4808 55.0456 52.528 55.3164 50.0546H59.4204C59.7412 50.0546 60.002 49.7901 60.002 49.4626V47.096C60.002 46.7695 59.7422 46.504 59.4204 46.504H59.4194ZM41.977 29.3434H52.6863L57.0931 37.193V46.504H54.464C52.8621 44.0601 49.6165 43.401 47.2152 45.0313C46.6426 45.4199 46.151 45.9202 45.7682 46.504H41.976V29.3434H41.977ZM44.9159 48.8707H25.0841C25.0322 48.469 24.9422 48.0723 24.8173 47.6869H45.1827C45.0548 48.0713 44.9658 48.468 44.9159 48.8707ZM37.9069 37.0363H31.5115V21.6514H37.9069V37.0363ZM21.047 16.9171H32.6747V20.4676H21.047V16.9171ZM23.3724 21.6514H30.3493V37.0363H23.3724V21.6514ZM40.2332 20.4676H33.8378V16.9171H40.2332V20.4676ZM33.572 12.1837H33.8368C34.8001 12.1837 35.5806 12.978 35.5806 13.9585C35.5806 14.9389 34.8001 15.7332 33.8368 15.7332H27.7602C28.9104 13.5537 31.1418 12.1908 33.572 12.1827V12.1837ZM18.1391 13.9585C18.1401 12.978 18.9206 12.1847 19.8829 12.1837H20.1477C22.5779 12.1919 24.8093 13.5547 25.9595 15.7342H19.8829C18.9196 15.7332 18.1401 14.9389 18.1391 13.9595V13.9585ZM13.4875 16.9171H19.8839V20.4676H13.4885V16.9171H13.4875ZM15.8128 21.6514H22.2092V37.0363H15.8138V21.6514H15.8128ZM12.9059 38.2202H40.8138V46.504H24.2318C22.6299 44.0601 19.3842 43.401 16.983 45.0313C16.4104 45.4199 15.9187 45.9202 15.536 46.504H12.9069V38.2202H12.9059ZM11.1622 47.6879H14.9504C14.8225 48.0723 14.7336 48.469 14.6836 48.8717H11.1632V47.6879H11.1622ZM19.8829 53.6051C17.6355 53.6051 15.8128 51.751 15.8128 49.4626C15.8128 47.1743 17.6345 45.3202 19.8829 45.3202C22.1313 45.3202 23.953 47.1743 23.953 49.4626C23.95 51.749 22.1303 53.602 19.8829 53.6051ZM50.1161 53.6051C47.8687 53.6051 46.046 51.751 46.046 49.4626C46.046 47.1743 47.8677 45.3202 50.1161 45.3202C52.3645 45.3202 54.1862 47.1743 54.1862 49.4626C54.1842 51.749 52.3635 53.602 50.1161 53.6051ZM58.8368 48.8707H55.3164C55.2694 48.468 55.1795 48.0713 55.0496 47.6869H58.8368V48.8707Z" fill="#1E1E1E"/>
<path d="M45.4635 39.4028H44.3003C43.9796 39.4028 43.7188 39.6673 43.7188 39.9948C43.7188 40.3222 43.9786 40.5867 44.3003 40.5867H45.4635C45.7843 40.5867 46.0451 40.3222 46.0451 39.9948C46.0451 39.6673 45.7853 39.4028 45.4635 39.4028Z" fill="#1E1E1E"/>
<path d="M19.88 47.0957C18.5959 47.0957 17.5547 48.1555 17.5547 49.4624C17.5547 50.7693 18.5959 51.829 19.88 51.829C21.1641 51.829 22.2053 50.7693 22.2053 49.4624C22.2043 48.1555 21.1631 47.0967 19.88 47.0957ZM19.88 50.6462C19.2375 50.6462 18.7169 50.1163 18.7169 49.4624C18.7169 48.8084 19.2375 48.2785 19.88 48.2785C20.5226 48.2785 21.0432 48.8084 21.0432 49.4624C21.0432 50.1153 20.5226 50.6452 19.88 50.6462Z" fill="#1E1E1E"/>
<path d="M50.1144 47.0957C48.8303 47.0957 47.7891 48.1555 47.7891 49.4624C47.7891 50.7693 48.8303 51.829 50.1144 51.829C51.3985 51.829 52.4397 50.7693 52.4397 49.4624C52.4387 48.1555 51.3975 47.0967 50.1144 47.0957ZM50.1144 50.6462C49.4719 50.6462 48.9512 50.1163 48.9512 49.4624C48.9512 48.8084 49.4719 48.2785 50.1144 48.2785C50.7569 48.2785 51.2776 48.8084 51.2776 49.4624C51.2776 50.1153 50.7569 50.6452 50.1144 50.6462Z" fill="#1E1E1E"/>
</svg>
