<svg width="40" height="40" viewBox="0 0 40 40" fill="none" xmlns="http://www.w3.org/2000/svg">
<rect x="0.893697" y="0.909322" width="38.4763" height="38.4763" rx="19.2382" stroke="white" stroke-opacity="0.5" stroke-width="0.818645"/>
<path d="M24.6095 11.7318C22.7292 11.7318 21.0942 12.5797 20.1325 14.0007C19.1709 12.5797 17.5359 11.7318 15.6556 11.7318C14.2312 11.7335 12.8657 12.3 11.8586 13.3072C10.8514 14.3143 10.2849 15.6798 10.2832 17.1042C10.2832 19.7187 11.9128 22.4398 15.1273 25.1905C16.6002 26.4456 18.1913 27.5551 19.8782 28.5034C19.9564 28.5454 20.0438 28.5674 20.1325 28.5674C20.2213 28.5674 20.3086 28.5454 20.3868 28.5034C22.0737 27.5551 23.6648 26.4456 25.1378 25.1905C28.3522 22.4398 29.9818 19.7187 29.9818 17.1042C29.9802 15.6798 29.4136 14.3143 28.4065 13.3072C27.3993 12.3 26.0338 11.7335 24.6095 11.7318ZM20.1325 27.411C18.6632 26.5631 11.3577 22.0933 11.3577 17.1042C11.3589 15.9647 11.8121 14.8722 12.6178 14.0664C13.4236 13.2607 14.5161 12.8075 15.6556 12.8063C17.4714 12.8063 18.9963 13.776 19.6356 15.3376C19.6761 15.4361 19.7449 15.5204 19.8334 15.5797C19.9219 15.639 20.026 15.6707 20.1325 15.6707C20.239 15.6707 20.3432 15.639 20.4317 15.5797C20.5201 15.5204 20.589 15.4361 20.6295 15.3376C21.2688 13.776 22.7936 12.8063 24.6095 12.8063C25.749 12.8075 26.8415 13.2607 27.6472 14.0664C28.453 14.8722 28.9062 15.9647 28.9074 17.1042C28.9074 22.0933 21.6019 26.5631 20.1325 27.411Z" fill="white"/>
</svg>
