<svg width="116" height="44" viewBox="0 0 116 44" fill="none" xmlns="http://www.w3.org/2000/svg">
<rect y="0.586792" width="115.499" height="42.7498" rx="5.25" fill="black"/>
<g clip-path="url(#clip0_2038_1679)">
<mask id="mask0_2038_1679" style="mask-type:luminance" maskUnits="userSpaceOnUse" x="8" y="13" width="19" height="19">
<path d="M26.8749 13.317H8.875V31.3169H26.8749V13.317Z" fill="white"/>
</mask>
<g mask="url(#mask0_2038_1679)">
<path d="M22.1545 25.0663C24.4367 23.8954 26.167 23.0032 26.3161 22.9339C26.7932 22.6969 27.2858 22.0695 26.3161 21.5822C26.003 21.429 24.3173 20.5646 22.1545 19.4498L19.1562 22.2789L22.1545 25.0663Z" fill="white" stroke="#8A8EFB" stroke-width="1.18946"/>
<path d="M19.1561 22.2858L9.60938 31.2754C9.83345 31.3031 10.0865 31.2477 10.3847 31.0944C11.0109 30.7742 17.6493 27.3871 22.1544 25.0739L19.1561 22.2858Z" fill="white" stroke="#8A8EFB" stroke-width="1.18946"/>
<path d="M19.1553 22.2804L22.1536 19.4652C22.1536 19.4652 11.0554 13.8065 10.3839 13.4724C10.1309 13.3324 9.8475 13.2908 9.59375 13.3324L19.1553 22.2804Z" fill="white" stroke="#8A8EFB" stroke-width="1.18946"/>
<path d="M19.1526 22.2807L9.59099 13.3326C9.20295 13.4165 8.875 13.7368 8.875 14.3919C8.875 15.4372 8.875 29.3466 8.875 30.2111C8.875 30.8107 9.12875 31.2426 9.60583 31.2842L19.1526 22.2807Z" fill="white" stroke="#8A8EFB" stroke-width="1.18946"/>
</g>
</g>
<path opacity="0.8" d="M37.1875 18.1727H35.1676V11.6273H37.277C37.9119 11.6273 38.4553 11.7583 38.907 12.0204C39.3587 12.2803 39.7049 12.6543 39.9457 13.1422C40.1864 13.628 40.3068 14.2097 40.3068 14.8872C40.3068 15.569 40.1854 16.156 39.9425 16.6482C39.6996 17.1383 39.3459 17.5154 38.8814 17.7796C38.4169 18.0417 37.8523 18.1727 37.1875 18.1727ZM35.9602 17.4696H37.1364C37.6776 17.4696 38.1261 17.3652 38.4819 17.1564C38.8377 16.9476 39.103 16.6504 39.2777 16.2647C39.4524 15.8791 39.5398 15.4199 39.5398 14.8872C39.5398 14.3588 39.4535 13.9039 39.2809 13.5225C39.1083 13.139 38.8505 12.845 38.5075 12.6404C38.1644 12.4337 37.7372 12.3304 37.2259 12.3304H35.9602V17.4696ZM43.5284 18.275C43.0852 18.275 42.6964 18.1695 42.3619 17.9586C42.0295 17.7477 41.7695 17.4526 41.582 17.0733C41.3967 16.694 41.304 16.2509 41.304 15.7438C41.304 15.2324 41.3967 14.786 41.582 14.4046C41.7695 14.0232 42.0295 13.7271 42.3619 13.5161C42.6964 13.3052 43.0852 13.1997 43.5284 13.1997C43.9716 13.1997 44.3594 13.3052 44.6918 13.5161C45.0263 13.7271 45.2862 14.0232 45.4716 14.4046C45.6591 14.786 45.7528 15.2324 45.7528 15.7438C45.7528 16.2509 45.6591 16.694 45.4716 17.0733C45.2862 17.4526 45.0263 17.7477 44.6918 17.9586C44.3594 18.1695 43.9716 18.275 43.5284 18.275ZM43.5284 17.5974C43.8651 17.5974 44.142 17.5112 44.3594 17.3386C44.5767 17.166 44.7376 16.9391 44.842 16.6578C44.9464 16.3766 44.9986 16.0719 44.9986 15.7438C44.9986 15.4156 44.9464 15.1099 44.842 14.8265C44.7376 14.5431 44.5767 14.3141 44.3594 14.1393C44.142 13.9646 43.8651 13.8773 43.5284 13.8773C43.1918 13.8773 42.9148 13.9646 42.6974 14.1393C42.4801 14.3141 42.3192 14.5431 42.2148 14.8265C42.1104 15.1099 42.0582 15.4156 42.0582 15.7438C42.0582 16.0719 42.1104 16.3766 42.2148 16.6578C42.3192 16.9391 42.4801 17.166 42.6974 17.3386C42.9148 17.5112 43.1918 17.5974 43.5284 17.5974ZM47.8494 18.1727L46.3537 13.2636H47.1463L48.2074 17.0222H48.2585L49.3068 13.2636H50.1122L51.1477 17.0094H51.1989L52.2599 13.2636H53.0526L51.5568 18.1727H50.8153L49.7415 14.4014H49.6648L48.5909 18.1727H47.8494ZM54.804 15.2196V18.1727H54.0497V13.2636H54.7784V14.0307H54.8423C54.9574 13.7814 55.1321 13.5811 55.3665 13.4298C55.6009 13.2764 55.9034 13.1997 56.2742 13.1997C56.6065 13.1997 56.8974 13.2679 57.1467 13.4043C57.396 13.5385 57.5898 13.743 57.7283 14.0179C57.8668 14.2906 57.9361 14.6358 57.9361 15.0534V18.1727H57.1818V15.1045C57.1818 14.7189 57.0817 14.4185 56.8814 14.2033C56.6811 13.9859 56.4063 13.8773 56.0568 13.8773C55.8161 13.8773 55.6009 13.9295 55.4112 14.0339C55.2237 14.1383 55.0756 14.2906 54.967 14.4909C54.8583 14.6912 54.804 14.9341 54.804 15.2196ZM60.0686 11.6273V18.1727H59.3144V11.6273H60.0686ZM63.4444 18.275C63.0012 18.275 62.6124 18.1695 62.2779 17.9586C61.9455 17.7477 61.6855 17.4526 61.498 17.0733C61.3127 16.694 61.22 16.2509 61.22 15.7438C61.22 15.2324 61.3127 14.786 61.498 14.4046C61.6855 14.0232 61.9455 13.7271 62.2779 13.5161C62.6124 13.3052 63.0012 13.1997 63.4444 13.1997C63.8876 13.1997 64.2754 13.3052 64.6078 13.5161C64.9423 13.7271 65.2022 14.0232 65.3876 14.4046C65.5751 14.786 65.6689 15.2324 65.6689 15.7438C65.6689 16.2509 65.5751 16.694 65.3876 17.0733C65.2022 17.4526 64.9423 17.7477 64.6078 17.9586C64.2754 18.1695 63.8876 18.275 63.4444 18.275ZM63.4444 17.5974C63.7811 17.5974 64.0581 17.5112 64.2754 17.3386C64.4927 17.166 64.6536 16.9391 64.758 16.6578C64.8624 16.3766 64.9146 16.0719 64.9146 15.7438C64.9146 15.4156 64.8624 15.1099 64.758 14.8265C64.6536 14.5431 64.4927 14.3141 64.2754 14.1393C64.0581 13.9646 63.7811 13.8773 63.4444 13.8773C63.1078 13.8773 62.8308 13.9646 62.6135 14.1393C62.3961 14.3141 62.2353 14.5431 62.1309 14.8265C62.0265 15.1099 61.9743 15.4156 61.9743 15.7438C61.9743 16.0719 62.0265 16.3766 62.1309 16.6578C62.2353 16.9391 62.3961 17.166 62.6135 17.3386C62.8308 17.5112 63.1078 17.5974 63.4444 17.5974ZM68.2648 18.2878C67.9538 18.2878 67.6714 18.2292 67.4179 18.112C67.1643 17.9927 66.963 17.8212 66.8138 17.5974C66.6647 17.3716 66.5901 17.0989 66.5901 16.7793C66.5901 16.498 66.6455 16.27 66.7563 16.0953C66.8671 15.9185 67.0152 15.78 67.2006 15.6798C67.3859 15.5797 67.5905 15.5051 67.8142 15.4561C68.04 15.405 68.267 15.3645 68.4949 15.3347C68.7932 15.2963 69.0351 15.2675 69.2204 15.2484C69.4079 15.2271 69.5443 15.1919 69.6295 15.1429C69.7169 15.0939 69.7606 15.0087 69.7606 14.8872V14.8616C69.7606 14.5463 69.6743 14.3013 69.5017 14.1266C69.3312 13.9518 69.0724 13.8645 68.7251 13.8645C68.365 13.8645 68.0827 13.9433 67.8781 14.101C67.6736 14.2587 67.5297 14.427 67.4466 14.606L66.7307 14.3503C66.8586 14.052 67.029 13.8197 67.2421 13.6536C67.4573 13.4852 67.6917 13.368 67.9452 13.302C68.2009 13.2338 68.4523 13.1997 68.6995 13.1997C68.8572 13.1997 69.0383 13.2189 69.2428 13.2572C69.4495 13.2935 69.6487 13.3691 69.8405 13.4842C70.0344 13.5992 70.1952 13.7729 70.3231 14.0051C70.4509 14.2374 70.5148 14.5484 70.5148 14.9384V18.1727H69.7606V17.508H69.7222C69.6711 17.6145 69.5859 17.7285 69.4665 17.8499C69.3472 17.9714 69.1885 18.0747 68.9903 18.1599C68.7922 18.2452 68.5503 18.2878 68.2648 18.2878ZM68.3799 17.6102C68.6782 17.6102 68.9296 17.5516 69.1341 17.4344C69.3408 17.3173 69.4964 17.166 69.6008 16.9806C69.7073 16.7952 69.7606 16.6003 69.7606 16.3957V15.7054C69.7286 15.7438 69.6583 15.7789 69.5496 15.8109C69.4431 15.8407 69.3195 15.8673 69.1789 15.8908C69.0404 15.9121 68.9051 15.9313 68.773 15.9483C68.643 15.9632 68.5376 15.976 68.4566 15.9866C68.2606 16.0122 68.0773 16.0538 67.9069 16.1113C67.7386 16.1667 67.6022 16.2509 67.4978 16.3638C67.3955 16.4746 67.3444 16.6259 67.3444 16.8176C67.3444 17.0797 67.4413 17.2778 67.6352 17.4121C67.8312 17.5442 68.0795 17.6102 68.3799 17.6102ZM73.7452 18.275C73.3361 18.275 72.975 18.1717 72.6618 17.965C72.3485 17.7562 72.1035 17.4621 71.9267 17.0829C71.7498 16.7015 71.6614 16.2509 71.6614 15.731C71.6614 15.2153 71.7498 14.7679 71.9267 14.3886C72.1035 14.0094 72.3496 13.7164 72.665 13.5097C72.9803 13.3031 73.3446 13.1997 73.758 13.1997C74.0776 13.1997 74.3301 13.253 74.5155 13.3595C74.703 13.4639 74.8457 13.5832 74.9437 13.7175C75.0439 13.8496 75.1216 13.9582 75.177 14.0435H75.2409V11.6273H75.9952V18.1727H75.2665V17.4185H75.177C75.1216 17.508 75.0428 17.6209 74.9405 17.7572C74.8382 17.8915 74.6923 18.0119 74.5027 18.1184C74.313 18.2228 74.0606 18.275 73.7452 18.275ZM73.8475 17.5974C74.15 17.5974 74.4057 17.5186 74.6145 17.3609C74.8233 17.2011 74.9821 16.9806 75.0907 16.6994C75.1994 16.416 75.2537 16.0889 75.2537 15.7182C75.2537 15.3517 75.2005 15.031 75.0939 14.7562C74.9874 14.4792 74.8297 14.264 74.6209 14.1106C74.4121 13.955 74.1543 13.8773 73.8475 13.8773C73.5279 13.8773 73.2615 13.9593 73.0485 14.1234C72.8375 14.2853 72.6788 14.5058 72.5723 14.7849C72.4679 15.0619 72.4157 15.373 72.4157 15.7182C72.4157 16.0676 72.4689 16.3851 72.5755 16.6706C72.6841 16.954 72.8439 17.1798 73.0549 17.3482C73.2679 17.5143 73.5321 17.5974 73.8475 17.5974ZM82.0069 18.275C81.5637 18.275 81.1749 18.1695 80.8404 17.9586C80.508 17.7477 80.2481 17.4526 80.0606 17.0733C79.8752 16.694 79.7825 16.2509 79.7825 15.7438C79.7825 15.2324 79.8752 14.786 80.0606 14.4046C80.2481 14.0232 80.508 13.7271 80.8404 13.5161C81.1749 13.3052 81.5637 13.1997 82.0069 13.1997C82.4501 13.1997 82.8379 13.3052 83.1703 13.5161C83.5048 13.7271 83.7647 14.0232 83.9501 14.4046C84.1376 14.786 84.2314 15.2324 84.2314 15.7438C84.2314 16.2509 84.1376 16.694 83.9501 17.0733C83.7647 17.4526 83.5048 17.7477 83.1703 17.9586C82.8379 18.1695 82.4501 18.275 82.0069 18.275ZM82.0069 17.5974C82.3436 17.5974 82.6206 17.5112 82.8379 17.3386C83.0552 17.166 83.2161 16.9391 83.3205 16.6578C83.4249 16.3766 83.4771 16.0719 83.4771 15.7438C83.4771 15.4156 83.4249 15.1099 83.3205 14.8265C83.2161 14.5431 83.0552 14.3141 82.8379 14.1393C82.6206 13.9646 82.3436 13.8773 82.0069 13.8773C81.6703 13.8773 81.3933 13.9646 81.176 14.1393C80.9586 14.3141 80.7978 14.5431 80.6934 14.8265C80.589 15.1099 80.5368 15.4156 80.5368 15.7438C80.5368 16.0719 80.589 16.3766 80.6934 16.6578C80.7978 16.9391 80.9586 17.166 81.176 17.3386C81.3933 17.5112 81.6703 17.5974 82.0069 17.5974ZM86.137 15.2196V18.1727H85.3827V13.2636H86.1114V14.0307H86.1753C86.2904 13.7814 86.4651 13.5811 86.6995 13.4298C86.9339 13.2764 87.2364 13.1997 87.6072 13.1997C87.9395 13.1997 88.2304 13.2679 88.4797 13.4043C88.729 13.5385 88.9229 13.743 89.0614 14.0179C89.1998 14.2906 89.2691 14.6358 89.2691 15.0534V18.1727H88.5148V15.1045C88.5148 14.7189 88.4147 14.4185 88.2144 14.2033C88.0141 13.9859 87.7393 13.8773 87.3898 13.8773C87.1491 13.8773 86.9339 13.9295 86.7442 14.0339C86.5567 14.1383 86.4087 14.2906 86.3 14.4909C86.1913 14.6912 86.137 14.9341 86.137 15.2196ZM95.3136 13.2636V13.9028H92.7695V13.2636H95.3136ZM93.511 12.0875H94.2653V16.7665C94.2653 16.9795 94.2962 17.1393 94.358 17.2459C94.4219 17.3503 94.5028 17.4206 94.6009 17.4568C94.701 17.4909 94.8065 17.508 94.9173 17.508C95.0004 17.508 95.0685 17.5037 95.1218 17.4952C95.1751 17.4845 95.2177 17.476 95.2496 17.4696L95.4031 18.1472C95.3519 18.1663 95.2805 18.1855 95.1889 18.2047C95.0973 18.226 94.9812 18.2366 94.8406 18.2366C94.6275 18.2366 94.4187 18.1908 94.2141 18.0992C94.0117 18.0076 93.8434 17.868 93.7092 17.6805C93.5771 17.493 93.511 17.2565 93.511 16.971V12.0875ZM97.3079 15.2196V18.1727H96.5536V11.6273H97.3079V14.0307H97.3718C97.4869 13.7771 97.6595 13.5758 97.8896 13.4266C98.1218 13.2754 98.4308 13.1997 98.8164 13.1997C99.1509 13.1997 99.4439 13.2668 99.6953 13.4011C99.9467 13.5332 100.142 13.7366 100.28 14.0115C100.421 14.2842 100.491 14.6315 100.491 15.0534V18.1727H99.7369V15.1045C99.7369 14.7146 99.6357 14.4131 99.4332 14.2001C99.233 13.9849 98.9549 13.8773 98.5991 13.8773C98.3519 13.8773 98.1303 13.9295 97.9343 14.0339C97.7404 14.1383 97.587 14.2906 97.4741 14.4909C97.3633 14.6912 97.3079 14.9341 97.3079 15.2196ZM103.929 18.275C103.456 18.275 103.048 18.1706 102.705 17.9618C102.364 17.7509 102.101 17.4568 101.916 17.0797C101.733 16.7004 101.641 16.2594 101.641 15.7565C101.641 15.2537 101.733 14.8105 101.916 14.427C102.101 14.0413 102.359 13.7409 102.689 13.5257C103.022 13.3084 103.409 13.1997 103.853 13.1997C104.108 13.1997 104.361 13.2423 104.61 13.3276C104.859 13.4128 105.086 13.5513 105.291 13.743C105.495 13.9327 105.658 14.1841 105.78 14.4973C105.901 14.8105 105.962 15.1962 105.962 15.6543V15.9739H102.178V15.3219H105.195C105.195 15.0449 105.139 14.7977 105.029 14.5804C104.92 14.3631 104.764 14.1915 104.562 14.0658C104.362 13.9401 104.125 13.8773 103.853 13.8773C103.552 13.8773 103.292 13.9518 103.073 14.101C102.855 14.248 102.688 14.4398 102.571 14.6763C102.454 14.9128 102.395 15.1663 102.395 15.4369V15.8716C102.395 16.2423 102.459 16.5566 102.587 16.8144C102.717 17.0701 102.897 17.2651 103.127 17.3993C103.357 17.5314 103.625 17.5974 103.929 17.5974C104.127 17.5974 104.306 17.5697 104.466 17.5143C104.628 17.4568 104.768 17.3716 104.885 17.2587C105.002 17.1436 105.093 17.0009 105.157 16.8304L105.885 17.0349C105.809 17.2821 105.68 17.4994 105.498 17.6869C105.317 17.8723 105.094 18.0172 104.827 18.1216C104.561 18.2239 104.262 18.275 103.929 18.275Z" fill="white"/>
<path d="M40.811 26.8798C40.7338 26.6374 40.6299 26.4203 40.4994 26.2286C40.3715 26.0342 40.2184 25.869 40.04 25.7332C39.8615 25.5947 39.6578 25.4895 39.4287 25.4176C39.2023 25.3457 38.9533 25.3097 38.6816 25.3097C38.2209 25.3097 37.8054 25.4282 37.4352 25.6653C37.065 25.9023 36.772 26.2499 36.5563 26.708C36.3432 27.1634 36.2367 27.7214 36.2367 28.3819C36.2367 29.0451 36.3445 29.6057 36.5603 30.0638C36.776 30.5219 37.0716 30.8695 37.4472 31.1065C37.8227 31.3436 38.2502 31.4621 38.7296 31.4621C39.1744 31.4621 39.5619 31.3715 39.8921 31.1904C40.2251 31.0093 40.4821 30.7536 40.6632 30.4234C40.8469 30.0904 40.9388 29.6989 40.9388 29.2488L41.2584 29.3087H38.9173V28.29H42.1333V29.2209C42.1333 29.908 41.9869 30.5046 41.6939 31.0106C41.4036 31.514 41.0014 31.9029 40.4874 32.1772C39.976 32.4515 39.3901 32.5887 38.7296 32.5887C37.9892 32.5887 37.3393 32.4182 36.78 32.0773C36.2234 31.7364 35.7892 31.253 35.4776 30.6271C35.166 29.9986 35.0102 29.2528 35.0102 28.3899C35.0102 27.7374 35.1008 27.1514 35.2819 26.6321C35.463 26.1127 35.7173 25.6719 36.0449 25.3097C36.3752 24.9448 36.7627 24.6665 37.2075 24.4748C37.6549 24.2803 38.1436 24.1831 38.6737 24.1831C39.1158 24.1831 39.5273 24.2484 39.9081 24.3789C40.2916 24.5094 40.6325 24.6945 40.9308 24.9342C41.2318 25.1739 41.4808 25.4589 41.6779 25.7891C41.875 26.1167 42.0082 26.4803 42.0774 26.8798H40.811ZM46.1893 32.6007C45.614 32.6007 45.112 32.4688 44.6832 32.2051C44.2544 31.9415 43.9215 31.5726 43.6844 31.0985C43.4474 30.6244 43.3289 30.0705 43.3289 29.4366C43.3289 28.8 43.4474 28.2434 43.6844 27.7667C43.9215 27.2899 44.2544 26.9197 44.6832 26.656C45.112 26.3924 45.614 26.2605 46.1893 26.2605C46.7646 26.2605 47.2666 26.3924 47.6954 26.656C48.1242 26.9197 48.4571 27.2899 48.6942 27.7667C48.9312 28.2434 49.0497 28.8 49.0497 29.4366C49.0497 30.0705 48.9312 30.6244 48.6942 31.0985C48.4571 31.5726 48.1242 31.9415 47.6954 32.2051C47.2666 32.4688 46.7646 32.6007 46.1893 32.6007ZM46.1933 31.5979C46.5662 31.5979 46.8751 31.4994 47.1201 31.3023C47.3652 31.1052 47.5463 30.8428 47.6635 30.5152C47.7833 30.1877 47.8432 29.8268 47.8432 29.4326C47.8432 29.0411 47.7833 28.6815 47.6635 28.3539C47.5463 28.0237 47.3652 27.7587 47.1201 27.5589C46.8751 27.3592 46.5662 27.2593 46.1933 27.2593C45.8178 27.2593 45.5061 27.3592 45.2585 27.5589C45.0134 27.7587 44.831 28.0237 44.7111 28.3539C44.594 28.6815 44.5354 29.0411 44.5354 29.4326C44.5354 29.8268 44.594 30.1877 44.7111 30.5152C44.831 30.8428 45.0134 31.1052 45.2585 31.3023C45.5061 31.4994 45.8178 31.5979 46.1933 31.5979ZM52.9679 32.6007C52.3926 32.6007 51.8905 32.4688 51.4617 32.2051C51.0329 31.9415 50.7 31.5726 50.463 31.0985C50.2259 30.6244 50.1074 30.0705 50.1074 29.4366C50.1074 28.8 50.2259 28.2434 50.463 27.7667C50.7 27.2899 51.0329 26.9197 51.4617 26.656C51.8905 26.3924 52.3926 26.2605 52.9679 26.2605C53.5431 26.2605 54.0452 26.3924 54.474 26.656C54.9028 26.9197 55.2357 27.2899 55.4727 27.7667C55.7098 28.2434 55.8283 28.8 55.8283 29.4366C55.8283 30.0705 55.7098 30.6244 55.4727 31.0985C55.2357 31.5726 54.9028 31.9415 54.474 32.2051C54.0452 32.4688 53.5431 32.6007 52.9679 32.6007ZM52.9719 31.5979C53.3447 31.5979 53.6537 31.4994 53.8987 31.3023C54.1437 31.1052 54.3248 30.8428 54.442 30.5152C54.5619 30.1877 54.6218 29.8268 54.6218 29.4326C54.6218 29.0411 54.5619 28.6815 54.442 28.3539C54.3248 28.0237 54.1437 27.7587 53.8987 27.5589C53.6537 27.3592 53.3447 27.2593 52.9719 27.2593C52.5963 27.2593 52.2847 27.3592 52.037 27.5589C51.792 27.7587 51.6096 28.0237 51.4897 28.3539C51.3725 28.6815 51.3139 29.0411 51.3139 29.4326C51.3139 29.8268 51.3725 30.1877 51.4897 30.5152C51.6096 30.8428 51.792 31.1052 52.037 31.3023C52.2847 31.4994 52.5963 31.5979 52.9719 31.5979ZM59.7344 34.9058C59.2471 34.9058 58.8276 34.8419 58.476 34.714C58.1271 34.5862 57.8421 34.4171 57.6211 34.2067C57.4 33.9962 57.2349 33.7659 57.1257 33.5155L58.1524 33.092C58.2243 33.2092 58.3202 33.3331 58.4401 33.4636C58.5626 33.5967 58.7277 33.7099 58.9354 33.8032C59.1458 33.8964 59.4162 33.943 59.7464 33.943C60.1992 33.943 60.5734 33.8325 60.869 33.6114C61.1647 33.393 61.3125 33.0441 61.3125 32.5647V31.3582H61.2366C61.1647 31.4887 61.0608 31.6339 60.925 31.7937C60.7918 31.9535 60.608 32.092 60.3737 32.2091C60.1393 32.3263 59.8343 32.3849 59.4588 32.3849C58.9741 32.3849 58.5373 32.2717 58.1484 32.0453C57.7622 31.8163 57.4559 31.4794 57.2296 31.0346C57.0058 30.5872 56.894 30.0372 56.894 29.3847C56.894 28.7321 57.0045 28.1728 57.2256 27.7067C57.4493 27.2407 57.7556 26.8838 58.1444 26.6361C58.5333 26.3857 58.9741 26.2605 59.4668 26.2605C59.8476 26.2605 60.1553 26.3245 60.3896 26.4523C60.624 26.5775 60.8064 26.724 60.9369 26.8918C61.0701 27.0595 61.1727 27.2074 61.2446 27.3352H61.3325V26.3404H62.503V32.6126C62.503 33.14 62.3805 33.5728 62.1355 33.911C61.8904 34.2493 61.5588 34.4996 61.1407 34.6621C60.7252 34.8246 60.2565 34.9058 59.7344 34.9058ZM59.7225 31.3942C60.066 31.3942 60.3563 31.3143 60.5934 31.1545C60.8331 30.992 61.0142 30.7603 61.1367 30.4593C61.2619 30.1557 61.3245 29.7921 61.3245 29.3687C61.3245 28.9559 61.2632 28.5923 61.1407 28.278C61.0182 27.9638 60.8384 27.7187 60.6014 27.5429C60.3643 27.3645 60.0714 27.2753 59.7225 27.2753C59.3629 27.2753 59.0633 27.3685 58.8236 27.5549C58.5839 27.7387 58.4028 27.9891 58.2803 28.306C58.1604 28.6229 58.1005 28.9772 58.1005 29.3687C58.1005 29.7708 58.1617 30.1237 58.2843 30.4274C58.4068 30.731 58.5879 30.968 58.8276 31.1385C59.0699 31.3089 59.3682 31.3942 59.7225 31.3942ZM65.2995 24.295V32.4768H64.105V24.295H65.2995ZM69.5512 32.6007C68.9466 32.6007 68.426 32.4715 67.9892 32.2131C67.555 31.9521 67.2195 31.5859 66.9824 31.1145C66.7481 30.6404 66.6309 30.0851 66.6309 29.4486C66.6309 28.82 66.7481 28.266 66.9824 27.7866C67.2195 27.3072 67.5497 26.933 67.9732 26.664C68.3993 26.395 68.8974 26.2605 69.4673 26.2605C69.8136 26.2605 70.1492 26.3178 70.4741 26.4323C70.799 26.5469 71.0906 26.7266 71.349 26.9717C71.6073 27.2167 71.8111 27.535 71.9602 27.9265C72.1094 28.3153 72.184 28.7881 72.184 29.3447V29.7682H67.306V28.8733H71.0134C71.0134 28.559 70.9495 28.2807 70.8216 28.0383C70.6938 27.7933 70.514 27.6002 70.2823 27.459C70.0533 27.3179 69.7843 27.2473 69.4753 27.2473C69.1397 27.2473 68.8468 27.3299 68.5964 27.495C68.3487 27.6575 68.157 27.8705 68.0211 28.1342C67.888 28.3952 67.8214 28.6789 67.8214 28.9852V29.6843C67.8214 30.0944 67.8933 30.4433 68.0371 30.731C68.1836 31.0186 68.3873 31.2383 68.6484 31.3902C68.9094 31.5393 69.2143 31.6139 69.5632 31.6139C69.7896 31.6139 69.996 31.5819 70.1824 31.518C70.3689 31.4514 70.53 31.3529 70.6658 31.2224C70.8017 31.0919 70.9055 30.9307 70.9775 30.739L72.108 30.9427C72.0175 31.2756 71.855 31.5673 71.6207 31.8176C71.3889 32.0653 71.0973 32.2584 70.7457 32.3969C70.3968 32.5327 69.9987 32.6007 69.5512 32.6007ZM76.5825 32.4768V24.295H79.4989C80.1354 24.295 80.6627 24.4108 81.0809 24.6426C81.499 24.8743 81.812 25.1912 82.0197 25.5934C82.2275 25.9929 82.3313 26.443 82.3313 26.9437C82.3313 27.4471 82.2261 27.8998 82.0157 28.302C81.808 28.7015 81.4937 29.0184 81.0729 29.2528C80.6547 29.4845 80.1287 29.6004 79.4949 29.6004H77.4894V28.5537H79.383C79.7852 28.5537 80.1114 28.4844 80.3618 28.3459C80.6121 28.2048 80.7959 28.013 80.9131 27.7707C81.0303 27.5283 81.0889 27.2526 81.0889 26.9437C81.0889 26.6347 81.0303 26.3604 80.9131 26.1207C80.7959 25.881 80.6108 25.6932 80.3578 25.5574C80.1074 25.4216 79.7772 25.3537 79.367 25.3537H77.8169V32.4768H76.5825ZM84.8772 24.295V32.4768H83.6826V24.295H84.8772ZM88.2699 32.6126C87.8811 32.6126 87.5295 32.5407 87.2153 32.3969C86.901 32.2504 86.652 32.0387 86.4682 31.7617C86.2871 31.4847 86.1965 31.1451 86.1965 30.743C86.1965 30.3967 86.2631 30.1117 86.3963 29.888C86.5294 29.6643 86.7092 29.4872 86.9356 29.3567C87.162 29.2262 87.415 29.1276 87.6947 29.0611C87.9743 28.9945 88.2593 28.9439 88.5496 28.9092C88.9171 28.8666 89.2154 28.832 89.4445 28.8054C89.6735 28.7761 89.84 28.7295 89.9439 28.6655C90.0477 28.6016 90.0997 28.4978 90.0997 28.3539V28.326C90.0997 27.9771 90.0011 27.7067 89.804 27.515C89.6096 27.3232 89.3193 27.2273 88.9331 27.2273C88.5309 27.2273 88.214 27.3166 87.9823 27.495C87.7532 27.6708 87.5948 27.8665 87.5069 28.0823L86.3843 27.8266C86.5175 27.4537 86.7119 27.1528 86.9676 26.9237C87.2259 26.692 87.5229 26.5242 87.8585 26.4203C88.194 26.3138 88.5469 26.2605 88.9171 26.2605C89.1622 26.2605 89.4218 26.2898 89.6962 26.3484C89.9732 26.4044 90.2315 26.5082 90.4712 26.66C90.7136 26.8119 90.912 27.0289 91.0665 27.3112C91.2209 27.5909 91.2982 27.9544 91.2982 28.4019V32.4768H90.1316V31.6379H90.0837C90.0064 31.7923 89.8906 31.9441 89.7361 32.0933C89.5816 32.2424 89.3832 32.3663 89.1409 32.4648C88.8985 32.5634 88.6082 32.6126 88.2699 32.6126ZM88.5296 31.6538C88.8599 31.6538 89.1422 31.5886 89.3766 31.4581C89.6136 31.3276 89.7934 31.1571 89.9159 30.9467C90.0411 30.7336 90.1037 30.5059 90.1037 30.2636V29.4725C90.061 29.5152 89.9785 29.5551 89.856 29.5924C89.7361 29.627 89.599 29.6576 89.4445 29.6843C89.29 29.7083 89.1395 29.7309 88.993 29.7522C88.8466 29.7708 88.724 29.7868 88.6255 29.8001C88.3938 29.8294 88.182 29.8787 87.9903 29.948C87.8012 30.0172 87.6494 30.1171 87.5349 30.2476C87.423 30.3754 87.3671 30.5459 87.3671 30.7589C87.3671 31.0546 87.4763 31.2783 87.6947 31.4301C87.913 31.5793 88.1914 31.6538 88.5296 31.6538ZM93.4245 34.7779C93.2461 34.7779 93.0836 34.7633 92.9371 34.734C92.7906 34.7074 92.6814 34.6781 92.6095 34.6461L92.8972 33.6673C93.1156 33.7259 93.31 33.7512 93.4805 33.7432C93.6509 33.7352 93.8014 33.6713 93.9319 33.5515C94.0651 33.4316 94.1822 33.2359 94.2835 32.9642L94.4313 32.5567L92.1861 26.3404H93.4645L95.0185 31.1025H95.0825L96.6365 26.3404H97.9189L95.3901 33.2958C95.2729 33.6154 95.1237 33.8857 94.9426 34.1068C94.7615 34.3305 94.5458 34.4983 94.2954 34.6102C94.0451 34.722 93.7548 34.7779 93.4245 34.7779Z" fill="white"/>
<defs>
<clipPath id="clip0_2038_1679">
<rect width="17.9999" height="17.9999" fill="white" transform="translate(8.875 13.3248)"/>
</clipPath>
</defs>
</svg>
