<svg width="37" height="37" viewBox="0 0 37 37" fill="none" xmlns="http://www.w3.org/2000/svg">
<rect x="0.046875" y="0.0859375" width="36" height="36" rx="4" fill="#EFA937"/>
<path d="M17.9982 10.998C16.0971 10.998 15.8587 11.0061 15.112 11.0402C14.3669 11.0742 13.8581 11.1925 13.4128 11.3655C12.9525 11.5444 12.5621 11.7838 12.173 12.1729C11.7838 12.5621 11.5444 12.9525 11.3655 13.4128C11.1925 13.8581 11.0742 14.3669 11.0401 15.112C11.0061 15.8587 10.998 16.0971 10.998 17.9982C10.998 19.8993 11.0061 20.1377 11.0401 20.8843C11.0742 21.6294 11.1925 22.1382 11.3655 22.5835C11.5444 23.0438 11.7838 23.4342 12.173 23.8234C12.5621 24.2125 12.9525 24.4519 13.4128 24.6308C13.8581 24.8038 14.3669 24.9221 15.112 24.9562C15.8587 24.9902 16.0971 24.9983 17.9982 24.9983C19.8993 24.9983 20.1377 24.9902 20.8843 24.9562C21.6294 24.9222 22.1382 24.8038 22.5835 24.6308C23.0438 24.4519 23.4342 24.2125 23.8234 23.8234C24.2125 23.4342 24.4519 23.0438 24.6308 22.5835C24.8038 22.1382 24.9222 21.6294 24.9562 20.8843C24.9902 20.1377 24.9983 19.8993 24.9983 17.9982C24.9983 16.0971 24.9902 15.8587 24.9562 15.112C24.9222 14.3669 24.8038 13.8581 24.6308 13.4128C24.4519 12.9525 24.2125 12.5621 23.8234 12.1729C23.4342 11.7838 23.0438 11.5444 22.5835 11.3655C22.1382 11.1925 21.6294 11.0742 20.8843 11.0402C20.1377 11.0061 19.8993 10.998 17.9982 10.998ZM17.9982 12.2593C19.8673 12.2593 20.0887 12.2665 20.8268 12.3001C21.5093 12.3313 21.88 12.4453 22.1266 12.5412C22.4534 12.6682 22.6866 12.8198 22.9315 13.0648C23.1765 13.3098 23.3282 13.543 23.4552 13.8697C23.551 14.1164 23.6651 14.487 23.6962 15.1695C23.7299 15.9077 23.737 16.1291 23.737 17.9982C23.737 19.8673 23.7299 20.0887 23.6962 20.8268C23.6651 21.5093 23.551 21.88 23.4552 22.1266C23.3282 22.4534 23.1765 22.6866 22.9315 22.9315C22.6866 23.1765 22.4534 23.3282 22.1266 23.4552C21.88 23.551 21.5093 23.6651 20.8268 23.6962C20.0888 23.7299 19.8674 23.737 17.9982 23.737C16.1289 23.737 15.9076 23.7299 15.1695 23.6962C14.487 23.6651 14.1164 23.551 13.8697 23.4552C13.5429 23.3282 13.3098 23.1765 13.0648 22.9315C12.8199 22.6866 12.6682 22.4534 12.5412 22.1266C12.4453 21.88 12.3313 21.5093 12.3001 20.8268C12.2665 20.0887 12.2593 19.8673 12.2593 17.9982C12.2593 16.1291 12.2665 15.9077 12.3001 15.1695C12.3313 14.487 12.4453 14.1164 12.5412 13.8697C12.6682 13.5429 12.8199 13.3098 13.0648 13.0648C13.3098 12.8198 13.543 12.6682 13.8697 12.5412C14.1164 12.4453 14.487 12.3313 15.1695 12.3001C15.9077 12.2665 16.1291 12.2593 17.9982 12.2593" fill="white"/>
<path d="M17.999 20.3308C16.7102 20.3308 15.6656 19.2861 15.6656 17.9974C15.6656 16.7087 16.7102 15.664 17.999 15.664C19.2876 15.664 20.3323 16.7087 20.3323 17.9974C20.3323 19.2861 19.2876 20.3308 17.999 20.3308ZM17.999 14.4028C16.0137 14.4028 14.4043 16.0121 14.4043 17.9974C14.4043 19.9827 16.0137 21.5921 17.999 21.5921C19.9842 21.5921 21.5936 19.9827 21.5936 17.9974C21.5936 16.0121 19.9842 14.4028 17.999 14.4028ZM22.5757 14.2607C22.5757 14.7247 22.1995 15.1008 21.7356 15.1008C21.2717 15.1008 20.8956 14.7247 20.8956 14.2607C20.8956 13.7968 21.2717 13.4207 21.7356 13.4207C22.1995 13.4207 22.5757 13.7968 22.5757 14.2607Z" fill="white"/>
</svg>
