<svg width="37" height="37" viewBox="0 0 37 37" fill="none" xmlns="http://www.w3.org/2000/svg">
<rect x="0.046875" y="0.0859375" width="36" height="36" rx="4" fill="#EFA937"/>
<path fill-rule="evenodd" clip-rule="evenodd" d="M16.1983 15.8763H18.7981V17.1713C19.1726 16.4265 20.133 15.7573 21.5757 15.7573C24.3414 15.7573 24.998 17.2399 24.998 19.9601V24.998H22.198V20.5796C22.198 19.0305 21.8235 18.1569 20.8701 18.1569C19.5478 18.1569 18.9983 19.0984 18.9983 20.5789V24.998H16.1983V15.8763ZM11.397 24.879H14.197V15.7573H11.397V24.879ZM14.5981 12.783C14.5983 13.0177 14.5517 13.2501 14.4612 13.4667C14.3707 13.6832 14.2381 13.8796 14.071 14.0444C13.7325 14.3809 13.2743 14.5692 12.797 14.568C12.3206 14.5677 11.8635 14.3799 11.5244 14.0451C11.358 13.8797 11.2258 13.6831 11.1355 13.4665C11.0452 13.25 10.9985 13.0177 10.998 12.783C10.998 12.3091 11.187 11.8555 11.5251 11.5209C11.8639 11.1858 12.3212 10.9978 12.7977 10.998C13.2751 10.998 13.7329 11.1863 14.071 11.5209C14.4084 11.8555 14.5981 12.3091 14.5981 12.783Z" fill="white"/>
</svg>
