<svg width="36" height="36" viewBox="0 0 36 36" fill="none" xmlns="http://www.w3.org/2000/svg">
<rect width="36" height="36" rx="7" fill="#FFF6E9"/>
<path d="M27.1629 18.2986C27.1611 19.4434 26.8201 20.562 26.1829 21.513C25.5457 22.4639 24.6409 23.2045 23.583 23.6412C22.5251 24.0779 21.3615 24.191 20.2393 23.9663C19.1171 23.7416 18.0868 23.1891 17.2784 22.3786C16.4701 21.5682 15.9201 20.5363 15.698 19.4132C15.4758 18.2901 15.5915 17.1264 16.0304 16.0691C16.4693 15.0118 17.2118 14.1085 18.1638 13.4732C19.1159 12.8379 20.2349 12.4992 21.3793 12.5C22.14 12.5004 22.8931 12.6508 23.5957 12.9424C24.2983 13.2341 24.9365 13.6614 25.474 14.1999C26.0114 14.7384 26.4376 15.3775 26.728 16.0808C27.0185 16.784 27.1676 17.5377 27.1668 18.2986H27.1629Z" fill="#F79F1A"/>
<path d="M20.409 18.2986C20.4072 19.4434 20.0662 20.562 19.429 21.513C18.7918 22.4639 17.887 23.2045 16.8291 23.6412C15.7712 24.0779 14.6076 24.191 13.4854 23.9663C12.3632 23.7416 11.3329 23.1891 10.5245 22.3786C9.71619 21.5682 9.16619 20.5363 8.94405 19.4132C8.72192 18.2901 8.83762 17.1264 9.27653 16.0691C9.71544 15.0118 10.4578 14.1085 11.4099 13.4732C12.362 12.8379 13.481 12.4992 14.6254 12.5C15.3861 12.5004 16.1392 12.6508 16.8418 12.9424C17.5444 13.2341 18.1826 13.6614 18.7201 14.1999C19.2575 14.7384 19.6837 15.3775 19.9741 16.0808C20.2646 16.784 20.4137 17.5377 20.4129 18.2986H20.409Z" fill="#EA001B"/>
</svg>
