<svg width="71" height="65" viewBox="0 0 71 65" fill="none" xmlns="http://www.w3.org/2000/svg">
<g clip-path="url(#clip0_2062_8017)">
<path d="M39.4004 30.8868H46.6825C46.6857 30.8868 46.6888 30.8874 46.692 30.8874H46.7608V26.875H39.4004V30.8868Z" fill="#DC2244"/>
<path d="M27.586 20.9723C26.8824 22.0977 27.226 23.5857 28.3515 24.2893C29.0949 24.7542 31.7418 24.9544 33.9997 24.9809C32.9866 22.963 31.6471 20.6716 30.9031 20.2068C29.7902 19.5114 28.2801 19.862 27.586 20.9723Z" fill="#FBCEA1"/>
<path d="M38.9531 32.7827H45.7363V45.2122H38.9531V32.7827Z" fill="#DC2244"/>
<path d="M43.4156 20.9723C42.7215 19.862 41.2114 19.5114 40.0986 20.2068C39.3546 20.6716 38.015 22.963 37.002 24.9809C39.2598 24.9544 41.9062 24.7542 42.6502 24.2893C43.7756 23.5857 44.1192 22.0977 43.4156 20.9723Z" fill="#FBCEA1"/>
<path d="M33.9434 32.7828H37.0589V45.2123H33.9434V32.7828Z" fill="#FBCEA1"/>
<path d="M33.4941 26.8756H37.5066V30.8874H33.4941V26.8756Z" fill="#FBCEA1"/>
<path d="M31.5987 26.8756H24.2383V30.888H24.3071C24.3103 30.888 24.3134 30.8874 24.3166 30.8874H31.5987V26.8756Z" fill="#DC2244"/>
<path d="M25.2637 32.7827H32.0468V45.2122H25.2637V32.7827Z" fill="#DC2244"/>
<path d="M25.9798 19.9681C24.9756 21.5742 25.1682 23.5921 26.3095 24.9809H23.2931C22.7695 24.9809 22.3457 25.4047 22.3457 25.9283V31.8354C22.3457 32.359 22.7695 32.7828 23.2931 32.7828H23.3714V46.1596C23.3714 46.6832 23.7952 47.107 24.3188 47.107H46.6842C47.2078 47.107 47.6316 46.6832 47.6316 46.1596V32.7828H47.7099C48.2335 32.7828 48.6573 32.359 48.6573 31.8354V25.9283C48.6573 25.4047 48.2335 24.9809 47.7099 24.9809H44.6935C45.8348 23.5921 46.0274 21.5748 45.0232 19.9681C43.7828 17.983 41.0796 17.3603 39.0952 18.6001C37.9002 19.3466 36.4362 21.9152 35.5015 23.7468C34.5668 21.9158 33.1028 19.3472 31.9078 18.6001C29.9234 17.3603 27.2209 17.983 25.9798 19.9681ZM24.3093 30.8881H24.2404V26.8756H31.6002V30.8874H24.3181C24.3156 30.8868 24.3124 30.8881 24.3093 30.8881ZM32.0493 45.2123H25.2661V32.7828H32.0493V45.2123ZM37.059 45.2123H33.9434V32.7828H37.059V45.2123ZM45.7369 45.2123H38.9537V32.7828H45.7369V45.2123ZM46.7625 26.8756V30.8881H46.6937C46.6905 30.8881 46.6874 30.8874 46.6842 30.8874H39.4021V26.8756H46.7625ZM40.0994 20.2068C41.2122 19.5114 42.7223 19.8619 43.4164 20.9723C44.12 22.0977 43.7764 23.5857 42.651 24.2893C41.907 24.7542 39.2607 24.9544 37.0028 24.9809C38.0158 22.963 39.3554 20.6716 40.0994 20.2068ZM37.5074 26.8756V30.8874H33.495V26.8756H37.5074ZM30.9036 20.2068C31.6476 20.6716 32.9872 22.963 34.0002 24.9809C31.7423 24.9544 29.0954 24.7542 28.352 24.2893C27.2265 23.5857 26.883 22.0977 27.5865 20.9723C28.2806 19.8619 29.7908 19.5114 30.9036 20.2068Z" fill="#1E1E1E"/>
<path d="M37.6 12.5873C37.9885 12.9353 38.5872 12.9056 38.9377 12.5153C39.287 12.1263 39.2548 11.5269 38.8657 11.1776L38.1596 10.5442C49.0531 11.8623 57.5238 21.1585 57.5238 32.4018C57.5238 42.06 51.3413 50.5016 42.1392 53.4075C41.6402 53.5654 41.3636 54.0978 41.5209 54.5968C41.6807 55.1021 42.2219 55.3686 42.7095 55.2151C52.7036 52.0591 59.4186 42.8911 59.4186 32.4025C59.4186 20.1328 50.1299 9.99595 38.2158 8.64248L39.0621 8.03301C39.4866 7.72795 39.5826 7.13553 39.2769 6.71048C38.9706 6.28543 38.3794 6.1888 37.9544 6.49574L34.9461 8.66269C34.7276 8.85216 34.5704 9.08269 34.5539 9.3808C34.5388 9.66122 34.6689 9.93911 34.8672 10.1362L37.6 12.5873Z" fill="#1E1E1E"/>
<path d="M32.7848 56.3141L31.8027 57.0215C31.3782 57.3272 31.2822 57.9196 31.5879 58.344C31.773 58.6011 32.0629 58.7375 32.3578 58.7375C32.5498 58.7375 32.7431 58.6794 32.9104 58.5587L36.0545 56.2939C36.2629 56.1379 36.4075 55.8928 36.4372 55.6339C36.4732 55.3225 36.3526 55.0371 36.1334 54.8204L33.3374 52.3112C32.9477 51.9619 32.349 51.9941 31.9997 52.3832C31.6498 52.7722 31.6827 53.3716 32.0717 53.7208L32.841 54.4112C21.9475 53.0931 13.4768 43.7968 13.4768 32.5535C13.4768 22.8947 19.6593 14.4537 28.8614 11.5484C29.3603 11.3905 29.637 10.8581 29.4797 10.3598C29.3218 9.85959 28.7894 9.58485 28.2911 9.74148C18.297 12.8969 11.582 22.0648 11.582 32.5541C11.582 44.8238 20.8713 54.9606 32.7848 56.3141Z" fill="#1E1E1E"/>
</g>
<defs>
<clipPath id="clip0_2062_8017">
<rect width="48" height="53.0526" fill="white" transform="translate(11.5 6)"/>
</clipPath>
</defs>
</svg>
