<svg width="71" height="65" viewBox="0 0 71 65" fill="none" xmlns="http://www.w3.org/2000/svg">
<path d="M16.7474 12.6875C15.7805 12.6875 14.8531 13.0716 14.1694 13.7553C13.4857 14.4391 13.1016 15.3664 13.1016 16.3333V37.1667C13.1016 39.1812 14.7328 40.8125 16.7474 40.8125H54.2474C55.2143 40.8125 56.1417 40.4284 56.8254 39.7447C57.5091 39.0609 57.8932 38.1336 57.8932 37.1667V16.3333C57.8932 15.3664 57.5091 14.4391 56.8254 13.7553C56.1417 13.0716 55.2143 12.6875 54.2474 12.6875H16.7474Z" fill="#80ACED"/>
<path fill-rule="evenodd" clip-rule="evenodd" d="M57.8932 18.9375H13.1016V22.0625H57.8932V18.9375Z" fill="#3083FF"/>
<path d="M42.7917 24.1459C38.7858 24.1459 34.944 25.7372 32.1114 28.5698C29.2788 31.4024 27.6875 35.2442 27.6875 39.25C27.6875 43.2559 29.2788 47.0977 32.1114 49.9303C34.944 52.7629 38.7858 54.3542 42.7917 54.3542C46.7975 54.3542 50.6393 52.7629 53.4719 49.9303C56.3045 47.0977 57.8958 43.2559 57.8958 39.25C57.8958 35.2442 56.3045 31.4024 53.4719 28.5698C50.6393 25.7372 46.7975 24.1459 42.7917 24.1459Z" fill="#F5F4F4"/>
<path d="M38.1016 34.0416C38.1016 32.7984 38.5954 31.6061 39.4745 30.7271C40.3536 29.848 41.5459 29.3541 42.7891 29.3541C44.0323 29.3541 45.2245 29.848 46.1036 30.7271C46.9827 31.6061 47.4766 32.7984 47.4766 34.0416V37.1666C47.4766 37.581 47.3119 37.9785 47.0189 38.2715C46.7259 38.5645 46.3285 38.7291 45.9141 38.7291H39.6641C39.2497 38.7291 38.8522 38.5645 38.5592 38.2715C38.2662 37.9785 38.1016 37.581 38.1016 37.1666V34.0416ZM42.7891 32.4791C42.3747 32.4791 41.9772 32.6437 41.6842 32.9368C41.3912 33.2298 41.2266 33.6272 41.2266 34.0416V35.6041H44.3516V34.0416C44.3516 33.6272 44.1869 33.2298 43.8939 32.9368C43.6009 32.6437 43.2035 32.4791 42.7891 32.4791Z" fill="#626262"/>
<path d="M37.5859 35.6041C37.1715 35.6041 36.7741 35.7687 36.4811 36.0618C36.1881 36.3548 36.0234 36.7522 36.0234 37.1666V45.5C36.0234 46.3625 36.7234 47.0625 37.5859 47.0625H48.0026C48.417 47.0625 48.8144 46.8978 49.1075 46.6048C49.4005 46.3118 49.5651 45.9144 49.5651 45.5V37.1666C49.5651 36.7522 49.4005 36.3548 49.1075 36.0618C48.8144 35.7687 48.417 35.6041 48.0026 35.6041H37.5859Z" fill="#F58300"/>
<path d="M18.3125 25.7084C18.3125 25.294 18.4771 24.8965 18.7701 24.6035C19.0632 24.3105 19.4606 24.1459 19.875 24.1459H24.0417C24.4561 24.1459 24.8535 24.3105 25.1465 24.6035C25.4395 24.8965 25.6042 25.294 25.6042 25.7084C25.6042 26.1228 25.4395 26.5202 25.1465 26.8132C24.8535 27.1063 24.4561 27.2709 24.0417 27.2709H19.875C19.4606 27.2709 19.0632 27.1063 18.7701 26.8132C18.4771 26.5202 18.3125 26.1228 18.3125 25.7084Z" fill="#3083FF"/>
<path fill-rule="evenodd" clip-rule="evenodd" d="M13.1016 16.3333C13.1016 14.3187 14.7328 12.6875 16.7474 12.6875H54.2474C56.262 12.6875 57.8932 14.3187 57.8932 16.3333V39.25H54.7682V16.3333C54.7682 16.1952 54.7134 16.0627 54.6157 15.965C54.518 15.8674 54.3855 15.8125 54.2474 15.8125H16.7474C16.6093 15.8125 16.4768 15.8674 16.3791 15.965C16.2814 16.0627 16.2266 16.1952 16.2266 16.3333V37.1667C16.2266 37.4542 16.4599 37.6875 16.7474 37.6875H29.2474V40.8125H16.7474C15.7805 40.8125 14.8531 40.4284 14.1694 39.7447C13.4857 39.0609 13.1016 38.1336 13.1016 37.1667V16.3333Z" fill="#333333"/>
<path fill-rule="evenodd" clip-rule="evenodd" d="M13.1016 20.5C13.1016 20.0856 13.2662 19.6882 13.5592 19.3951C13.8522 19.1021 14.2497 18.9375 14.6641 18.9375H56.3307C56.7451 18.9375 57.1426 19.1021 57.4356 19.3951C57.7286 19.6882 57.8932 20.0856 57.8932 20.5C57.8932 20.9144 57.7286 21.3118 57.4356 21.6049C57.1426 21.8979 56.7451 22.0625 56.3307 22.0625H14.6641C14.2497 22.0625 13.8522 21.8979 13.5592 21.6049C13.2662 21.3118 13.1016 20.9144 13.1016 20.5ZM36.0182 37.1667C36.0182 36.7523 36.1828 36.3548 36.4759 36.0618C36.7689 35.7688 37.1663 35.6042 37.5807 35.6042H47.9974C48.4118 35.6042 48.8092 35.7688 49.1022 36.0618C49.3953 36.3548 49.5599 36.7523 49.5599 37.1667V45.5C49.5599 45.9144 49.3953 46.3118 49.1022 46.6049C48.8092 46.8979 48.4118 47.0625 47.9974 47.0625H37.5807C37.1663 47.0625 36.7689 46.8979 36.4759 46.6049C36.1828 46.3118 36.0182 45.9144 36.0182 45.5V37.1667ZM39.1432 38.7292V43.9375H46.4349V38.7292H39.1432Z" fill="#333333"/>
<path d="M38.1016 34.0416C38.1016 32.7984 38.5954 31.6061 39.4745 30.7271C40.3536 29.848 41.5459 29.3541 42.7891 29.3541C44.0323 29.3541 45.2245 29.848 46.1036 30.7271C46.9827 31.6061 47.4766 32.7984 47.4766 34.0416V37.1666C47.4766 37.581 47.3119 37.9785 47.0189 38.2715C46.7259 38.5645 46.3285 38.7291 45.9141 38.7291H39.6641C39.2497 38.7291 38.8522 38.5645 38.5592 38.2715C38.2662 37.9785 38.1016 37.581 38.1016 37.1666V34.0416ZM42.7891 32.4791C42.3747 32.4791 41.9772 32.6437 41.6842 32.9368C41.3912 33.2298 41.2266 33.6272 41.2266 34.0416V35.6041H44.3516V34.0416C44.3516 33.6272 44.1869 33.2298 43.8939 32.9368C43.6009 32.6437 43.2035 32.4791 42.7891 32.4791Z" fill="#333333"/>
<path fill-rule="evenodd" clip-rule="evenodd" d="M42.7917 27.2709C39.6146 27.2709 36.5676 28.533 34.3211 30.7795C32.0746 33.026 30.8125 36.073 30.8125 39.25C30.8125 42.4271 32.0746 45.4741 34.3211 47.7206C36.5676 49.9671 39.6146 51.2292 42.7917 51.2292C45.9687 51.2292 49.0157 49.9671 51.2622 47.7206C53.5087 45.4741 54.7708 42.4271 54.7708 39.25C54.7708 36.073 53.5087 33.026 51.2622 30.7795C49.0157 28.533 45.9687 27.2709 42.7917 27.2709ZM27.6875 39.25C27.6875 37.2665 28.0782 35.3024 28.8372 33.4699C29.5963 31.6374 30.7089 29.9723 32.1114 28.5698C33.514 27.1672 35.179 26.0547 37.0116 25.2956C38.8441 24.5366 40.8082 24.1459 42.7917 24.1459C44.7752 24.1459 46.7393 24.5366 48.5718 25.2956C50.4043 26.0547 52.0694 27.1672 53.4719 28.5698C54.8745 29.9723 55.987 31.6374 56.7461 33.4699C57.5052 35.3024 57.8958 37.2665 57.8958 39.25C57.8958 43.2559 56.3045 47.0977 53.4719 49.9303C50.6393 52.7629 46.7975 54.3542 42.7917 54.3542C38.7858 54.3542 34.944 52.7629 32.1114 49.9303C29.2788 47.0977 27.6875 43.2559 27.6875 39.25Z" fill="#333333"/>
<path d="M18.3125 25.7084C18.3125 25.294 18.4771 24.8965 18.7701 24.6035C19.0632 24.3105 19.4606 24.1459 19.875 24.1459H24.0417C24.4561 24.1459 24.8535 24.3105 25.1465 24.6035C25.4395 24.8965 25.6042 25.294 25.6042 25.7084C25.6042 26.1228 25.4395 26.5202 25.1465 26.8132C24.8535 27.1063 24.4561 27.2709 24.0417 27.2709H19.875C19.4606 27.2709 19.0632 27.1063 18.7701 26.8132C18.4771 26.5202 18.3125 26.1228 18.3125 25.7084Z" fill="#333333"/>
</svg>
