<svg width="37" height="37" viewBox="0 0 37 37" fill="none" xmlns="http://www.w3.org/2000/svg">
<rect x="0.046875" y="0.0859375" width="36" height="36" rx="4" fill="#EFA937"/>
<path d="M24.998 13.3791C24.4738 13.6173 23.9177 13.7736 23.3483 13.8429C23.9414 13.4784 24.3968 12.9012 24.6112 12.2134C24.0474 12.5565 23.4306 12.7982 22.7874 12.9281C22.2634 12.3558 21.517 11.998 20.6908 11.998C19.1045 11.998 17.8185 13.3168 17.8185 14.9432C17.8185 15.1741 17.8439 15.3989 17.8928 15.6145C15.5057 15.4916 13.3893 14.3191 11.9726 12.5372C11.7254 12.9722 11.5838 13.4782 11.5838 14.0178C11.5838 15.0397 12.0909 15.9411 12.8616 16.4693C12.4055 16.4547 11.9594 16.3283 11.5606 16.1009C11.5604 16.1132 11.5604 16.1256 11.5604 16.138C11.5604 17.565 12.5505 18.7554 13.8644 19.0259C13.4414 19.1439 12.9978 19.1612 12.5673 19.0764C12.9328 20.2465 13.9936 21.098 15.2504 21.1218C14.2674 21.9117 13.0289 22.3826 11.6832 22.3826C11.4514 22.3826 11.2228 22.3687 10.998 22.3415C12.2691 23.1771 13.7789 23.6647 15.4009 23.6647C20.6841 23.6647 23.5731 19.1768 23.5731 15.2848C23.5731 15.1571 23.5704 15.03 23.5648 14.9038C24.1271 14.4869 24.6125 13.9706 24.998 13.3791Z" fill="white"/>
</svg>
